<?xml version="1.0" encoding="utf-8"?>
<!-- Generator: Adobe Illustrator 24.3.0, SVG Export Plug-In . SVG Version: 6.00 Build 0)  -->
<svg version="1.1" id="图层_1" xmlns="http://www.w3.org/2000/svg" xmlns:xlink="http://www.w3.org/1999/xlink" x="0px" y="0px"
	 viewBox="0 0 253.8 92.6" style="enable-background:new 0 0 253.8 92.6;" xml:space="preserve">
<style type="text/css">
	.st0{fill:#FFFFFF;}
</style>
<g>
	<g>
		<path class="st0" d="M43.8,30.1c-0.4-0.1-0.9-0.3-1.4-0.4c-0.1-0.5-0.6-0.4-0.5,0c-0.5,0.1-0.9,0.3-1.4,0.5
			c-0.2,0.2-0.1,0.4,0.2,0.4c0.6-0.1,1-0.3,1.5-0.4c0.4,0.1,1,0.2,1.5,0.3C44,30.5,44.1,30.3,43.8,30.1z M42.6,32.2L42.6,32.2
			l0.4-0.1c0.6-0.1,0.6-1.1,0-1.4l-1.6,0.1c-0.7,0.1-0.5,1.3,0,1.4h0.4v0.1C41.1,33.1,41,34,41,35.1c0.1,0.2,0.3,0.2,0.4,0
			c0-0.9,0.2-1.7,0.6-2.4h0.1l0.1,2.3c0,0.2,0.4,0.2,0.4,0l-0.1-2.4h0.1c0.4,0.6,0.6,1.4,0.7,2.3c0,0.2,0.3,0.2,0.4,0
			C43.5,33.4,43.1,32.4,42.6,32.2z M41.7,31.7c-0.3,0-0.4-0.5,0-0.5h1c0.3,0.1,0.3,0.5,0,0.5H41.7z M36.2,51.6
			c0.3-0.4,0.7-0.9,0.8-1.4c0.1-0.7-0.1-1.2-0.8-1.2c-0.5-0.1-0.9,0.3-0.9,0.9v0.5l0.6-0.1c-0.1-0.6,0.1-1,0.5-0.6
			c0.1,0.2,0.1,0.4,0,0.8c-0.2,0.4-0.6,0.8-0.7,1.3v0.6l1.8-0.4v-0.6L36.2,51.6z M35.9,34.8c0.2,0,0.4-0.2,0.4-0.4s-0.2-0.3-0.5-0.3
			c-0.2,0-0.4,0.2-0.4,0.4S35.6,34.8,35.9,34.8z M22.2,29.4c-0.2,0-0.2,0-0.4,0.1c-0.3,0-0.7,0.1-1,0.4l0.1,4.7
			c0.1,0.4,0.5,0.3,0.5-0.1l-0.2-4.4c0.1-0.1,0.1-0.1,0.2-0.1l0.3,4.6c0.1,0.3,0.5,0.3,0.5,0L21.9,30c0.1,0,0.2-0.1,0.3-0.1
			C22.5,29.9,22.5,29.4,22.2,29.4z M19.8,29.6c-0.2-0.1-0.3-0.2-0.4-0.2c-0.3,0-0.3,0.5,0,0.5c0.1,0,0.2,0,0.2,0l-0.2,4.8
			c0,0.3,0.4,0.3,0.5,0L20,30c0.1,0,0.2,0,0.3,0.2l0.1,4.4c0,0.5,0.4,0.4,0.5,0L20.7,30C20.4,29.8,20.1,29.6,19.8,29.6z M30.5,22.9
			c0.6,0,1.2,0,1.9,0c0,0.3,0,0.5,0,0.8L32,24.2h0.4c0.2-0.2,0.3-0.4,0.3-0.6c0.1-0.8-0.1-3.6-0.9-4.4C31.5,19,31.3,19,31,19.1
			c-0.7,0.7-0.8,1.9-0.9,4.1c0,0.5,0,0.7,0.1,1.1h0.5c-0.2-0.2-0.2-0.3-0.2-0.5C30.4,23.5,30.4,23.2,30.5,22.9z M30.7,20.5
			c0.4-1.5,0.9-1.4,1.4,0.3c0.1,0.5,0.2,1.1,0.3,1.8c-0.6,0-1.2,0-1.8,0C30.5,21.8,30.5,21.1,30.7,20.5z M44.3,43.5l-0.5,0.6
			l1.6,1.4l1.1,2.4l0.6-0.6l-0.9-1.8l1.9,0.5l0.5-0.6l-2.7-0.6L44.3,43.5z M25.7,32c0.2,0.1,0.5,0.1,0.8,0.2v0.7
			c-0.2,0-0.5-0.1-0.7-0.2v-0.5c0.2,0,0.4,0.1,0.5,0.1v0.3c-0.1,0-0.2,0-0.3-0.1v-0.1h0.2v-0.1h-0.3v0.3c0.2,0,0.3,0.1,0.5,0.1v-0.5
			C26.2,32.2,26,32.1,25.7,32v0.7c0.3,0.1,0.6,0.2,0.9,0.3v-0.9C26.3,32,26.1,32,25.7,32l0.1-0.7c0.3,0.1,0.6,0.2,0.8,0.2v0.4
			c-0.2,0-0.4,0-0.6-0.1v-0.3c0.1,0,0.3,0,0.4,0.1v0.1h-0.3v0.1l0.3,0.1v-0.3c-0.2,0-0.4,0-0.5-0.1v0.4c0.2,0,0.5,0.1,0.7,0.1v-0.6
			c-0.3-0.1-0.6-0.2-1-0.3L25.7,32z M28.6,30.6c-0.2-0.1-0.5,0-0.5,0.2s0.1,0.4,0.3,0.5c0.2,0.1,0.5,0,0.5-0.2
			C29,30.9,28.9,30.7,28.6,30.6z M26.2,33.6c-0.2-0.1-0.5,0-0.5,0.2s0.1,0.4,0.3,0.5c0.2,0.1,0.5,0,0.5-0.2
			C26.6,33.9,26.4,33.7,26.2,33.6z M27.5,30.3c-0.2-0.1-0.4,0-0.5,0.2c0,0.2,0.1,0.4,0.3,0.5c0.2,0.1,0.5,0,0.5-0.2
			C27.9,30.6,27.7,30.4,27.5,30.3z M27.7,36.9c-0.4,0.1-0.5,0.5-0.2,0.7c0.3,0.1,0.9-0.3,0.8-0.5C28.2,36.9,27.9,36.9,27.7,36.9z
			 M27.6,37.5c-0.2,0-0.2-0.3,0.1-0.4c0.3,0,0.3-0.1,0.5,0C28.1,37.4,28,37.4,27.6,37.5z M49.4,42.9l-3.3-2l-0.4,0.7l3.3,2l-0.5,0.9
			l0.7,0.4l1.4-2.5L50,42.1L49.4,42.9z M26.4,29.9c-0.2-0.1-0.5,0-0.5,0.2s0.1,0.4,0.3,0.5c0.2,0.1,0.5,0,0.5-0.2
			C26.8,30.2,26.6,29.9,26.4,29.9z M27.2,34.1c-0.2-0.1-0.5,0-0.5,0.2s0.1,0.4,0.3,0.5c0.2,0.1,0.4,0,0.5-0.2
			C27.6,34.4,27.5,34.1,27.2,34.1z M37,34.4c0.2,0,0.4-0.2,0.4-0.4s-0.2-0.3-0.4-0.3s-0.4,0.2-0.4,0.4S36.8,34.4,37,34.4z
			 M26.9,32.4c0.3,0.1,0.6,0.1,0.9,0.2v0.7c-0.3,0-0.6-0.1-0.8-0.2v-0.5c0.2,0,0.4,0.1,0.6,0.1V33c-0.1,0-0.2,0-0.4-0.1v-0.1h0.2
			v-0.1h-0.3V33c0.2,0,0.3,0.1,0.5,0.1v-0.5C27.3,32.6,27.1,32.5,26.9,32.4v0.8c0.3,0.1,0.6,0.2,0.9,0.3v-0.9
			C27.5,32.4,27.2,32.4,26.9,32.4l0.1-0.7c0.3,0.1,0.6,0.1,0.8,0.2v0.4c-0.2,0-0.4-0.1-0.6-0.1v-0.3c0.1,0,0.3,0,0.4,0.1v0.1h-0.3
			v0.1l0.3,0.1V32c-0.2,0-0.4,0-0.6-0.1L26.9,32.4c0.4,0.1,0.6,0.1,0.9,0.1v-0.6c-0.3-0.1-0.7-0.1-1-0.2L26.9,32.4z M27.8,49.6h-0.4
			V50h0.5l-0.3,2.3l0.5,0.1l0.4-3.1l-0.4-0.1C28,49.4,28,49.5,27.8,49.6z M26.4,15.8L25.7,13l1.3,2.7l0.5-0.2l-0.2-2.9l0.7,2.8
			l0.6-0.2l-1.1-4.4L26.6,11l0.1,2.7l-1.2-2.5l-0.9,0.3l1.1,4.3L26.4,15.8z M30.5,13.9h1.1l0.3,1.3h0.7l-1.4-4.5h-0.6l-1.2,4.5h0.7
			L30.5,13.9z M31,11.9l0.4,1.4h-0.8L31,11.9z M23.3,17.2l-0.9-1.6l0.5-0.3l1.7,1.3l0.7-0.4l-1.8-1.3c0.9-0.7-0.2-2.8-1.3-2.2
			l-1.6,0.8l2.1,4L23.3,17.2z M21.4,13.8l0.9-0.5c0.6-0.2,1.1,0.9,0.7,1.3l-0.9,0.5L21.4,13.8z M20.9,18.9c1-0.9-0.1-2.3-0.8-3.2
			c-0.7-0.9-1.7-0.9-2.3-0.3c-0.6,0.6-0.4,1.4,0.4,2.5C18.8,18.9,20,19.8,20.9,18.9z M18.2,16c0.4-0.5,1-0.2,1.4,0.4
			C20,17,21,18,20.4,18.6c-0.5,0.5-1.4-0.3-1.8-0.9C18.2,17,17.9,16.3,18.2,16z M34.7,35.1c0.2,0,0.4-0.2,0.4-0.4s-0.2-0.3-0.4-0.3
			s-0.4,0.2-0.4,0.4C34.2,35,34.4,35.2,34.7,35.1z M42.2,17.9l2.2-2.9l-0.6-0.4l-2,2.7c-0.6,0.6-1.5-0.2-1.1-0.9l2-2.6l-0.6-0.4
			l-2,2.9C39.4,17.6,41.5,18.6,42.2,17.9z M36.5,15.1l-2-0.4l0.8-3.8l-0.7-0.2l-0.9,4.4l2.8,0.6L36.5,15.1z M17.8,22.1l-2.3-1.8
			l3.1,0.8l0.4-0.6l-3.5-2.8l-0.4,0.6l2.3,1.8l-3.2-0.8l-0.4,0.6l3.5,2.8L17.8,22.1z M33.9,22.8c-0.2-2-0.4-3.6-1.7-4.7
			c-0.5-0.3-1.1-0.3-1.6-0.1c-1.4,0.8-1.7,2.6-1.9,4.8c-1.3,0.2-2.6,0.6-3.9,1.2l-1.2,19.5c5.3-2.1,10.7-2.3,15.9,0L38,24
			C36.6,23.4,35.3,23,33.9,22.8z M28.7,23.2c0,0.5-0.1,0.9-0.3,1.2h0.4c0.1-0.1,0.2-0.3,0.2-0.4c0.1-1.8,0.3-3.3,0.8-4.3
			c0.8-1.8,2.6-2,3.4,0.6c0.3,0.9,0.4,2.1,0.5,3.6l0.3,0.5h0.5C34.3,24,34,23.8,34,23.5c0-0.1,0-0.2,0-0.4c1,0.2,2,0.5,3,1
			c-4.1,1.7-7.9,1.6-11.3,0C26.7,23.7,27.7,23.4,28.7,23.2z M34.3,40.2C34.3,40.2,34.2,40.2,34.3,40.2c-0.1-0.2-0.2-0.3-0.3-0.3
			c-0.1-0.2-0.1-0.4-0.1-0.6c0-0.1,0.1-0.2,0.1-0.2c0.1-0.1,0.3-0.1,0.5-0.1v0.1c-0.8,0.1-0.6,0.7-0.1,1.2c0.3,0.3,0.4,0.6,0.2,0.9
			c-0.1,0.1-0.2,0.2-0.4,0.2s-0.3-0.1-0.2-0.1c0.2,0,0.3-0.1,0.4-0.2C34.7,40.8,34.5,40.4,34.3,40.2z M30.3,41.2
			c-0.1-0.1-0.1-0.1,0-0.3s0.3-0.4,0.6-0.5c0,0,0.1,0,0.1,0.1c-0.3,0.2-0.5,0.4-0.6,0.6C30.4,41.1,30.3,41.1,30.3,41.2L30.3,41.2z
			 M30.6,41c0.2-0.2,0.4-0.4,0.6-0.5h0.1c-0.2,0.1-0.4,0.3-0.6,0.5c-0.1,0.2-0.3,0.2-0.4,0.1C30.4,41.2,30.5,41.2,30.6,41z M30.4,40
			C30.4,40,30.4,39.9,30.4,40c0.4,0.2,0.9,0.3,1.6,0.5c0.3,0.1,0.5,0.3,0.6,0.5c0,0.1,0.1,0.3,0,0.3c0,0,0,0-0.1-0.2
			c-0.1-0.1-0.2-0.3-0.4-0.3C31.5,40.4,30.7,40.4,30.4,40z M28.4,41c0.1,0.1,0.2,0.2,0.4,0.2c0.1,0,0.1,0.1-0.2,0.1
			c-0.2,0-0.3-0.1-0.4-0.2c-0.2-0.2,0-0.6,0.3-0.9c0.5-0.5,0.7-1,0-1.2v-0.1c0.2,0,0.3,0.1,0.4,0.2c0.1,0.1,0.1,0.2,0.1,0.2
			c0.1,0.2,0,0.6-0.4,0.9C28.5,40.4,28.3,40.8,28.4,41z M27.9,38.9L27.9,38.9l0.1-0.1l0,0l0,0L27.9,38.9z M28,39.1L28,39.1l-0.1,0.1
			C27.9,39.2,27.9,39.1,28,39.1L28,39.1z M27.9,38.7c-0.1-0.1-0.1-0.2-0.2-0.3s-0.3-0.2-0.6-0.2c0.2,0,0.3,0,0.6-0.1l0,0
			c0.2,0,0.4-0.1,0.7-0.2l0,0c-0.1,0.3-0.2,0.6-0.2,0.9L27.9,38.7z M26.5,40.5c0-0.1,0.1-0.1,0.1-0.1c0.6,0,0.7,0.2,0.7,0.6
			c0,0.6-0.3,0.5-0.2,0.3C27.4,40.7,26.9,40.4,26.5,40.5z M26.2,40.9c0.1-0.1,0.1-0.2,0.2-0.2c0.4-0.1,0.8,0.1,0.7,0.4
			c0,0.3-0.2,0.5-0.2,0.2C27.1,40.7,26.6,40.6,26.2,40.9z M26.6,40.3c-0.3,0.3-0.6,0.7-0.8,1.1c-0.2,0.3-0.6,0.6-0.7,0.7
			c-0.2,0-0.2-0.1,0.1-0.2c0.5-0.3,0.7-0.8,0.9-1c0.2-0.3,0.5-0.7,0.8-0.9c0.4-0.2,0.7-0.4,0.8-0.5c0.2-0.4,0-0.9-0.6-1
			c-0.2,0-0.8,0-1-0.4c-0.2-0.3-0.4-0.5-0.7-0.7c-0.2-0.1,0-0.2,0.2,0c0.4,0.3,0.7,0.9,1.2,0.9c0.4,0,0.7,0.2,0.9,0.5
			c0.1,0.1,0.2,0.3,0.1,0.5c0,0.2-0.1,0.5-0.4,0.6L27.3,40C27,39.9,26.8,40.1,26.6,40.3z M25.3,39.4c0.1,0.2,0.6,0.2,0.7,0.1
			c0.2-0.2,0.2-0.6,0.2-0.8h0.1c0.1,0.3,0,0.8-0.2,0.9c-0.2,0.1-0.5,0.2-0.7,0c-0.3-0.2-0.3-0.8,0.2-0.7c0.2,0,0.3,0.3,0.2,0.2
			C25.4,38.9,25.2,39.2,25.3,39.4z M25.7,38.9c-0.5-0.4-0.8,0.3-0.7,0.6c0.2,0.3,0.9,0.4,1.1,0.2c0.2-0.3,0.3-0.6,0.2-0.9h0.1
			c0.1,0.4,0,0.9-0.3,1c-0.3,0.2-0.7,0.2-1,0c-0.4-0.3-0.4-1.1,0.3-1.1C25.8,38.7,25.9,39,25.7,38.9z M26.6,38.7
			c0.1,0,0.2,0,0.3,0.1c0.3,0.2,0.4,0.4,0.2,0.6c-0.2,0.1-0.3,0.2-0.8,0.4l0,0C26.5,39.6,26.7,39.2,26.6,38.7z M26.3,40
			c0.3-0.2,0.7-0.4,0.9-0.5c0.3-0.2,0.1-0.8-0.5-0.9c-0.1,0-0.2,0-0.4,0l0,0c-0.2,0-0.4-0.1-0.5-0.4c-0.2-0.2-0.3-0.5-0.7-0.7
			c-0.2-0.2,0-0.2,0.2,0c0.5,0.3,0.5,0.8,1,0.9c0.4,0.1,0.7,0.1,1,0.3s0.3,0.8-0.4,1c-0.7,0.3-1.1,1-1.5,1.7
			c-0.2,0.3-0.5,0.4-0.7,0.5c-0.2,0-0.2-0.1,0-0.2c0.5-0.3,0.7-0.5,0.8-0.7C25.8,40.7,26,40.2,26.3,40z M26.8,37.4
			c0,0.1,0,0.2,0.1,0.3c-0.1,0-0.3,0-0.2-0.8c0-0.2,0-0.5-0.2-0.6s-0.2-0.2-0.2-0.2s0.2,0,0.3,0.2c0.2,0.2,0.2,0.5,0.2,0.9
			C26.8,37.3,26.8,37.4,26.8,37.4z M26.4,36.5c0.2,0.2,0.1,0.5,0.1,0.8s0.1,0.5,0.5,0.6c0.1,0.1,0.1,0.1,0.2,0.1
			c-0.4,0.1-0.6,0-0.7-0.3c-0.1-0.2-0.1-0.3-0.1-0.6c0-0.2,0-0.4-0.1-0.6c-0.1-0.2-0.2-0.2-0.2-0.3C26.2,36.2,26.3,36.3,26.4,36.5z
			 M28,36.6c0.2,0.1,0.5,0.1,0.7,0.4c0.8-0.2,1.3,0,1.6,0.3c0,0-0.1,0-0.1,0.1c-0.3-0.2-0.9-0.3-1.6-0.2
			C28.4,36.9,28.2,36.7,28,36.6c-0.4,0-0.9,0.2-1,0.7c0,0.3,0.1,0.4,0.3,0.5c0.4,0.1,0.9-0.2,1.3-0.6c0.6-0.2,1.1-0.1,1.4,0.1
			c0,0-0.1,0-0.1,0.1c-0.3-0.2-0.7-0.3-1.1-0.2c-0.8,0.6-1.8,1.1-1.8,0C27,36.8,27.6,36.6,28,36.6z M28,36.4
			c0.1-0.6,0.2-0.4,0.2-0.2C28.1,36.4,28.1,36.4,28,36.4C28,36.5,28,36.5,28,36.4C28,36.5,28,36.4,28,36.4z M28.2,36.5
			c0-0.4,0.2-0.6,0.2-0.3c0,0.1,0,0.3,0,0.3l0,0C28.3,36.6,28.3,36.5,28.2,36.5C28.3,36.5,28.2,36.5,28.2,36.5z M28.2,35
			c0.2,0.1,0.5,0,0.5-0.2c0-0.1,0-0.2-0.1-0.3c0.1,0,0.3,0,0.4-0.1v1.3c-1.2-0.2-2.5-0.6-3.7-1.1l0.1-1.8c1.1,0.6,2.2,0.8,3.4,1
			c-0.1,0.2-0.1,0.5-0.2,0.7c-0.1-0.1-0.1-0.1-0.2-0.1c-0.2-0.1-0.5,0-0.5,0.2C27.8,34.7,28,35,28.2,35z M29.1,32.7
			c0,0.1,0,0.1-0.1,0.2L29.1,32.7c-0.3,0-0.7,0-0.9-0.1V32c0.3,0.1,0.5,0.1,0.7,0.2v0.4c-0.2,0-0.4-0.1-0.6-0.1v-0.3
			c0.1,0,0.2,0,0.4,0.1v0.1h-0.3v0.1l0.3,0.1v-0.3c-0.2,0-0.3,0-0.5-0.1v0.5C28.5,32.6,28.8,32.7,29.1,32.7L29,32.1
			c-0.3-0.1-0.6-0.1-0.9-0.2v0.8c0.2,0.1,0.6,0.2,0.9,0.2v0.4c0,0.1-0.1,0.2-0.1,0.3c-0.2,0-0.5-0.1-0.7-0.2v-0.5
			c0.2,0,0.5,0.1,0.6,0.1v0.3c-0.1,0-0.3,0-0.4-0.1V33c0.1,0,0.2,0,0.2,0v-0.1c-0.1,0-0.2,0-0.3-0.1v0.3c0.2,0,0.4,0.1,0.6,0.1v-0.5
			c-0.2,0-0.6-0.1-0.8-0.2v0.7c0.2,0.1,0.5,0.1,0.8,0.2c0,0,0,0,0,0.1c-1.1-0.2-2.3-0.5-3.4-1l0.1-1.8c1.1,0.5,2.3,0.9,3.6,1.1
			L29.1,32.7z M25.5,30.8l0.1-1.7c1.2,0.6,2.5,0.9,3.7,1.1l-0.1,2.2v0.1V32C27.8,31.7,26.6,31.3,25.5,30.8z M30.5,30
			c0.5-0.1,0.5-1,0-1h-0.7v-0.2h0.8c0.2,0,0.3-0.7,0-0.8h-0.9v-0.2c0-0.2-0.2-0.2-0.3-0.2l0.1-1.1c1.1,0.1,2.3,0.1,3.4,0l0.1,1.4
			c-0.6-0.1-1.3-0.1-1.9,0c-0.4,0-0.4,0.5,0,0.6h0.6v0.3c-0.3,0-0.7,0.1-0.8,0.3c-0.1,0.2-0.2,0.6-0.1,0.9c0.1,0.2,0.4,0.2,0.4,0
			c0-0.5,0.2-0.8,0.6-0.7V30c0.1,0.5,0.6,0.5,0.6,0v-0.7h0.4c0.2,0.1,0.2,0.3,0.2,0.6c0,0.2,0.1,0.3,0.2,0.3l0,0v0.3l0,0l0.1,1.3
			c-0.1-0.1-0.2-0.1-0.3-0.1h-1.2c-0.2-0.5-0.8-0.6-1,0h-1.1c-0.3,0-0.5,0.2-0.6,0.3l0.1-1.7L30.5,30z M29.9,29.3h0.4
			c0.1,0,0.1,0.3,0,0.3h-0.4C29.8,29.5,29.8,29.3,29.9,29.3z M29.9,28.2h0.5c0.1,0,0.1,0.2,0,0.2h-0.5
			C29.8,28.3,29.8,28.2,29.9,28.2z M34.4,34.3c0-0.1-0.1-0.2-0.1-0.3c1.1-0.2,2.3-0.4,3.3-0.9l0.1,1.4c-1.3,0.6-2.5,1-3.8,1.2
			l-0.1-1.3C34.1,34.7,34.5,34.6,34.4,34.3z M34.2,33.9L34.2,33.9c0.3-0.1,0.5-0.2,0.8-0.2V33c-0.3,0-0.5,0.1-0.8,0.1v0.5
			c0.2,0,0.4,0,0.5-0.1v-0.3h-0.3v0.1h0.2v0.1c-0.1,0-0.3,0-0.4,0v-0.3c0.2,0,0.4,0,0.6-0.1v0.5c-0.2,0.1-0.5,0.1-0.7,0.1
			c0-0.1,0-0.1-0.1-0.2v-0.5c0.3,0,0.6,0,0.9-0.1V32c-0.3,0.1-0.7,0.1-1,0.1v0.6c0.3,0,0.5,0,0.8-0.1v-0.5c-0.2,0-0.4,0.1-0.6,0.1
			v0.3h0.3v-0.1h-0.3v-0.1c0.1,0,0.3,0,0.4,0v0.3c-0.2,0-0.4,0.1-0.6,0v-0.4c0.2,0,0.5,0,0.8-0.1v0.6c-0.3,0.1-0.6,0.1-0.9,0.1v0.3
			c-0.1-0.4-0.2-0.8-0.3-1.1c1.3-0.1,2.6-0.5,3.7-1l0.1,1.8C36.6,33.4,35.3,33.8,34.2,33.9z M33.7,32c0-0.1,0-0.1-0.1-0.2
			c0,0,0,0,0-0.1l-0.1-1.6c1.3-0.1,2.6-0.4,3.8-0.9l0.1,1.7C36.3,31.5,35.1,31.9,33.7,32z M33.5,30.1v-0.3c0,0,0,0,0.1-0.1
			c0.1-0.5,0.1-0.8-0.1-1v-0.5c1.4-0.1,2.6-0.5,3.7-1l0.1,1.9C36.1,29.8,34.7,30,33.5,30.1z M33.4,28.2c0.1-0.1,0.1-0.3-0.1-0.4
			l-0.1-1.5c1.4-0.2,2.7-0.5,3.8-1l0.1,1.9C36,27.7,34.8,28.1,33.4,28.2z M33.4,28.3L33.4,28.3L33.4,28.3L33.4,28.3z M33.2,28.3v0.4
			c-0.2-0.1-0.4-0.1-0.7-0.1v-0.2L33.2,28.3z M29.5,27.5l-0.1,0.1v0.5C28,28,26.8,27.6,25.7,27l0.1-1.7c1.2,0.5,2.4,0.8,3.7,0.9
			L29.5,27.5z M25.7,27.1c1.1,0.5,2.3,0.9,3.7,1.1l-0.1,1.9c-1.2-0.2-2.6-0.5-3.7-1.1l0.1-1.6V27.1z M29.2,34.3
			C29.2,34.3,29.3,34.3,29.2,34.3c0.3-0.8,0.5-1.5,0.7-2.2c0-0.1,0.1-0.1,0.2-0.2h0.5c-0.1,0.7-0.3,1.3-0.4,2.1
			c-0.1,0.5,0.3,0.6,0.6,0c0.3-0.7,0.4-1.3,0.5-2h0.3c0.1,0.8,0.2,1.4,0.6,2.1c0.2,0.4,0.7,0.4,0.5-0.2c-0.2-0.7-0.4-1.2-0.5-2h0.7
			c0.3,0.8,0.3,1,0.6,1.9c0,0.1,0,0.1,0.1,0.2l0,0l0,0v0.1l0.1,1.5c-1.5,0.3-3.1,0.2-4.6,0L29.2,34.3z M34.7,36.7
			c0.1,0,0.2-0.1,0.3-0.1c0.4-0.1,1,0.2,1,0.7c-0.1,1.1-1.1,0.6-1.8-0.1c-0.6-0.2-1.1,0-1.3,0.3c0,0-0.1,0-0.1-0.1
			c0.3-0.3,0.9-0.5,1.6-0.2c0.3,0.3,0.9,0.7,1.2,0.6c0.2,0,0.3-0.2,0.4-0.5c0-0.5-0.5-0.7-0.9-0.7c-0.2,0-0.5,0.2-0.7,0.4
			c-0.8-0.2-1.4,0-1.7,0.3c0,0-0.1,0-0.1-0.1c0.3-0.4,0.9-0.6,1.8-0.4C34.4,36.7,34.5,36.7,34.7,36.7C34.6,36.7,34.6,36.7,34.7,36.7
			z M34.7,36.5C34.7,36.5,34.6,36.5,34.7,36.5c-0.1,0-0.2-0.1-0.2-0.2C34.5,36,34.7,36.2,34.7,36.5z M35,36.4L35,36.4
			c-0.1-0.1-0.2-0.1-0.2-0.2C34.7,36.1,34.8,35.9,35,36.4z M36.2,37.1c0-0.3,0-0.7,0.2-0.9c0.1-0.1,0.3-0.1,0.3-0.1
			c0.1,0,0,0.1-0.2,0.2c-0.2,0.1-0.2,0.4-0.2,0.6c0,0.8-0.1,0.8-0.2,0.8c0-0.1,0.1-0.2,0.1-0.2v-0.1C36.2,37.4,36.2,37.3,36.2,37.1z
			 M36.4,37.3c0-0.3,0-0.7,0.1-0.9c0.1-0.1,0.3-0.2,0.3-0.2c0.1,0.1,0,0.1-0.2,0.3c-0.1,0.2-0.2,0.4-0.2,0.5c0,0.6,0,1-0.8,0.9l0,0
			c0.1,0,0.1,0,0.3-0.1C36.4,37.8,36.4,37.6,36.4,37.3z M37,39.5c0.1,0.2,0.6,0.1,0.7-0.1c0.1-0.2-0.1-0.5-0.4-0.4
			c-0.1,0.1,0-0.2,0.2-0.2c0.5,0,0.5,0.5,0.2,0.7C37.5,39.8,37.2,39.7,37,39.5c-0.2,0-0.3-0.5-0.2-0.8h0.1
			C36.9,38.9,36.9,39.3,37,39.5z M36.9,39.6c0.2,0.3,0.9,0.2,1.1-0.1c0.2-0.3-0.1-1-0.6-0.6c-0.2,0.1-0.1-0.2,0.3-0.2
			c0.7,0,0.6,0.9,0.2,1.2c-0.3,0.2-0.7,0.2-1-0.1c-0.3-0.2-0.4-0.7-0.2-1h0.1C36.6,39,36.7,39.3,36.9,39.6z M36.8,38.5L36.8,38.5
			c-0.2,0-0.3,0-0.4,0c-0.7,0-0.8,0.6-0.6,0.8c0.1,0.1,0.6,0.3,0.8,0.5c0.3,0.2,0.5,0.7,0.7,1.1c0.1,0.2,0.3,0.5,0.8,0.8
			c0.2,0.1,0.2,0.3,0,0.2s-0.5-0.3-0.7-0.6c-0.4-0.6-0.8-1.5-1.5-1.8c-0.6-0.2-0.5-0.8-0.3-1c0.3-0.2,0.6-0.2,1-0.3
			c0.6-0.1,0.6-0.7,1-0.9c0.3-0.2,0.4-0.1,0.2,0c-0.4,0.2-0.5,0.5-0.7,0.7C37.2,38.4,37,38.5,36.8,38.5z M37.9,37.3
			c-0.4,0.2-0.6,0.4-0.8,0.7s-0.8,0.3-1,0.3c-0.6,0.1-0.8,0.7-0.6,1c0.1,0.2,0.5,0.3,0.8,0.5s0.6,0.6,0.8,0.9c0.1,0.2,0.3,0.7,0.8,1
			c0.2,0.1,0.2,0.3,0.1,0.2c-0.2-0.1-0.5-0.4-0.7-0.7s-0.3-0.5-0.5-0.8l0,0l0,0c-0.1-0.1-0.1-0.2-0.2-0.2l0,0l0,0l-0.1-0.1
			c-0.2-0.2-0.4-0.3-0.7-0.4c-0.1,0-0.1-0.1-0.1-0.1c-0.2-0.1-0.3-0.4-0.3-0.6c0-0.2,0.1-0.4,0.2-0.5c0.2-0.3,0.5-0.4,1-0.4
			C37.2,38.1,37.4,37.5,37.9,37.3C37.9,37.2,38,37.2,37.9,37.3z M36.1,41.3c0,0.2-0.2,0.1-0.2-0.2c-0.1-0.4,0.2-0.5,0.6-0.4
			c0,0.1,0.1,0.1,0.1,0.2C36.3,40.6,36,40.7,36.1,41.3z M35.8,41.3c0.1,0.2-0.2,0.2-0.2-0.3c0-0.4,0.2-0.6,0.7-0.6l0.1,0.1
			C36.1,40.4,35.6,40.7,35.8,41.3z M35,38.9L35,38.9L35,38.9C35.1,38.9,35.1,38.9,35,38.9L35,38.9z M35.1,39.1L35.1,39.1
			C35.1,39.2,35.1,39.2,35.1,39.1L35.1,39.1C35,39.2,35,39.1,35.1,39.1L35.1,39.1z M35,38.7c0-0.2-0.1-0.4-0.2-0.6
			c-0.1-0.2-0.1-0.3-0.1-0.4c0,0,0.1,0,0.1,0.1c0.2,0.1,0.5,0.2,0.7,0.2c0,0,0,0-0.1,0c0.2,0.1,0.4,0.1,0.5,0.1
			c-0.2,0-0.3,0.1-0.4,0.2c-0.1,0.1-0.2,0.3-0.3,0.4H35z M34.6,39.3c0.1-0.3-0.2-0.9-0.4-1.4c-0.1-0.2-0.1-0.3,0-0.5l0.1,0.1
			c-0.1,0.4,0.5,1.2,0.4,1.7c0,0.1,0,0.3-0.2,0.4c-0.2,0.2-0.2,0,0-0.2C34.6,39.4,34.6,39.4,34.6,39.3L34.6,39.3L34.6,39.3z
			 M33.8,39.2c0,0.1-0.1,0.3,0,0.4c-0.3,0-0.6-0.1-0.8-0.3c0-0.2,0-0.3-0.1-0.5c0.2,0.1,0.4,0.1,0.7,0.1c0.5,0,0.4-0.5,0.1-0.5
			c-0.4,0-0.7-0.2-0.8-0.3c0.5,0.2,1,0.4,1.6,0.5c0,0.1,0,0.1,0.1,0.2C34.2,38.8,33.9,38.9,33.8,39.2z M33.8,39.9
			c-0.3,0-0.6-0.2-0.9-0.3v-0.1c0.3,0.1,0.5,0.2,0.8,0.3C33.8,39.8,33.8,39.8,33.8,39.9z M30.3,39.3c0,0-0.1,0-0.1,0.1
			c0-0.7,0.7-0.9,1.4-0.7c-0.1,0-0.1,0.1-0.2,0.1C31,38.6,30.4,38.9,30.3,39.3z M31.3,38.8c-0.1,0-0.1,0.1-0.2,0.1s-0.3,0.1-0.4,0.2
			c-0.1,0-0.1,0.1-0.2,0.1C30.6,38.9,30.9,38.8,31.3,38.8z M28.7,39.7C28.7,39.7,28.6,39.8,28.7,39.7c-0.2-0.1-0.4-0.7-0.3-1
			c0.1-0.4,0.2-0.8,0.2-1.1l0.1-0.1c-0.1,0.4-0.2,0.9-0.3,1.3C28.5,39.1,28.5,39.4,28.7,39.7z M28.7,39.4c0.1,0,0.1,0.1,0.1,0.2
			C28.7,39.5,28.7,39.5,28.7,39.4z M28.6,38.9c0-0.1,0-0.2,0.1-0.3c0.5-0.1,1-0.3,1.5-0.5c0,0.2-0.2,0.5-0.8,0.5
			c-0.3,0-0.4,0.5,0.1,0.5c0.4,0,0.6-0.1,0.8-0.2c-0.1,0.2-0.2,0.4-0.2,0.6c-0.3,0.1-0.6,0.2-0.8,0.2c0-0.2,0-0.3,0-0.4
			C29.1,39,28.9,38.8,28.6,38.9L28.6,38.9L28.6,38.9z M29.5,38.9c0.8,0,1.1-0.5,1-1c0,0,0.1,0,0.1-0.1c0.1,0.5-0.3,1.1-1.2,1.1
			c-0.4,0-0.3-0.3,0.1-0.3c0.6,0,0.8-0.3,0.7-0.6c0,0,0.1,0,0.1-0.1c0.1,0.3-0.2,0.7-0.7,0.8C29.1,38.7,29,38.9,29.5,38.9z
			 M30.6,38.6c0.2-0.2,0.2-0.5,0.1-0.8c0.2-0.1,0.5-0.3,0.7-0.4c0.3,0.2,0.5,0.3,0.8,0.5c0,0.2,0,0.4,0.2,0.6c-0.2,0-0.4,0-0.6,0.1
			C31.3,38.4,30.9,38.4,30.6,38.6z M31.5,37.3C31.6,37.2,31.6,37.2,31.5,37.3c0.9,0.5,2,0.8,2.7,1l0.1,0.1
			C33.5,38.3,32.2,37.9,31.5,37.3z M32.3,37.9C32.3,37.9,32.4,37.9,32.3,37.9c0.1,0.5,0.4,0.9,1.1,0.9c0.5,0,0.4-0.1-0.1-0.1
			c-0.5-0.1-0.7-0.4-0.7-0.6c0,0,0.1,0,0.1,0.1c0,0.2,0.2,0.4,0.7,0.5c0.4,0,0.5,0.4,0.1,0.3C32.7,38.8,32.3,38.4,32.3,37.9z
			 M34.7,39.7c0.3-0.2,0.1-0.9-0.2-1.5c-0.1-0.2-0.2-0.4-0.1-0.6l0.1,0.1c0,0.4,0.5,1,0.4,1.6C34.9,39.5,34.9,39.7,34.7,39.7
			c-0.1,0.2-0.2,0.2-0.2,0.2l0,0C34.5,39.8,34.6,39.8,34.7,39.7z M34.1,37.8c-0.4,0-0.7-0.1-1.1-0.2c0.2-0.2,0.6-0.4,1.1-0.3
			c0,0,0,0,0.1,0C34.1,37.5,34.1,37.6,34.1,37.8z M34.6,37.1c0.1-0.3,0.6-0.4,0.8-0.3c0.5,0.2,0.6,0.8,0.2,0.9
			c-0.2,0.1-0.6-0.1-0.9-0.3C34.6,37.3,34.5,37.2,34.6,37.1z M34.2,38L34.2,38v0.2c-0.7-0.2-1.8-0.5-2.5-1c0,0,0,0,0.1-0.1
			C32.5,37.6,33.5,37.8,34.2,38z M28.7,38.4L28.7,38.4l0.1-0.1c1.3-0.3,2.9-1.1,3.5-2.3l0,0h0.1C31.7,37.3,30.5,37.9,28.7,38.4z
			 M31.2,36c0.2,0,0.4,0,0.6,0c-0.1,0.2-0.2,0.3-0.3,0.4C31.3,36.3,31.2,36.2,31.2,36z M31.3,36.6L31.3,36.6
			c-0.2-0.1-0.4-0.3-0.6-0.5h0.2C31.1,36.2,31.2,36.4,31.3,36.6z M30.6,36.1c0.1,0.2,0.3,0.5,0.5,0.7c0,0-0.1,0-0.1,0.1
			c-0.2-0.2-0.4-0.5-0.6-0.8H30.6z M32,36L32,36c-0.7,1.2-1.5,1.6-3.2,2.1V38l0,0C30.1,37.7,31.2,37.2,32,36z M28.8,37.8
			c0-0.2,0.1-0.3,0.1-0.4l0,0c0.3,0,0.6,0,0.9,0.2C29.5,37.6,29.2,37.7,28.8,37.8z M28.5,37.1c0,0.1-0.1,0.2-0.2,0.3
			c-0.2,0.2-0.6,0.4-0.9,0.3c-0.3-0.1-0.2-0.7,0.3-0.9C27.9,36.7,28.3,36.8,28.5,37.1z M28.4,37.8c0,0,0.1,0,0.1-0.1
			c-0.1,0.4-0.3,0.9-0.2,1.5c0,0.2,0.1,0.5,0.2,0.7c0,0-0.1,0-0.1,0.1c-0.1,0-0.1-0.1-0.2-0.2c-0.1-0.1-0.1-0.2-0.1-0.4
			C28,38.8,28.3,38.3,28.4,37.8z M28.6,39.3L28.6,39.3c0.2-0.1,0.2-0.1,0.3,0.1c0.2,0.3-0.1,0.6-0.4,0.9c-0.3,0.3-0.3,0.5-0.3,0.6
			c0,0.2,0.1,0.5,0.4,0.6c0.3,0,0.3,0.1-0.1,0.1c-0.2,0-0.7-0.3-0.5-0.8C28.2,40.2,29.5,39.5,28.6,39.3z M29.1,40c0.1,0,0.2,0,0.3,0
			c0.4,0,0.7-0.2,1-0.3c0.4-0.1,0.7-0.3,1.1-0.6c1.2-0.8,1.7,0.4,0.6,0.8c-0.1,0-0.2,0.1-0.4,0.1c-0.1,0-0.1,0-0.2-0.1
			c0.2-0.1,0.4-0.2,0.6-0.2c0.6-0.3,0.4-1.1-0.4-0.6C31,39.7,29.9,40,29,40l0,0.1C29.1,40.1,29.1,40,29.1,40z M32.4,39.4L32.4,39.4
			c-0.2,0-0.3-0.1-0.5-0.1H32C32.1,39.2,32.3,39.2,32.4,39.4z M32.1,39.1c0.2,0,0.3,0,0.3,0.1C32.3,39.2,32.2,39.1,32.1,39.1z
			 M32.3,39.5c-0.1,0.1-0.2,0.2-0.3,0.2c-0.2,0.1-0.4,0.1-0.6,0.2c-0.3-0.1-0.5-0.1-0.5-0.2c0.3-0.1,0.6-0.3,0.8-0.4
			c0,0,0.1,0,0.1-0.1C32,39.3,32.1,39.4,32.3,39.5z M31.6,40.3c-0.5-0.1-0.7-0.2-0.9-0.4h0.1c0.5,0.2,0.9,0.3,1.3,0.5
			s0.7,0.5,0.7,0.7c0,0.1,0,0.2-0.1-0.1C32.6,40.7,32.1,40.4,31.6,40.3z M32,40.2c0,0-0.1,0-0.1-0.1C31.9,40.1,32,40.1,32,40.2
			c0.4-0.2,0.8-0.6,0.8-0.9c0-0.2-0.1-0.4-0.3-0.5c-0.1-0.1-0.4-0.1-0.8,0.1c-0.3,0.2-0.8,0.4-1.2,0.7c-0.4,0.2-0.9,0.3-1.3,0.3
			v-0.1c0.7,0,1.7-0.7,2.4-1c0.4-0.2,0.7-0.2,1-0.1l0.1,0.1c0,0,0.1,0,0.1,0.1c0.3,0.5,0.1,1-0.5,1.3C32.2,40.1,32.1,40.1,32,40.2z
			 M32.9,39.6L32.9,39.6c0.3,0.1,0.7,0.3,1,0.4l0.1,0.1C33.7,40.1,33.2,39.9,32.9,39.6C32.8,39.7,32.8,39.7,32.9,39.6
			C32.9,39.7,32.9,39.7,32.9,39.6z M34.4,41.4c0.4-0.1,0.5-0.4,0.5-0.6c0-0.2,0-0.3-0.3-0.6s-0.5-0.6-0.4-0.9
			c0.1-0.2,0.2-0.1,0.4-0.2c0,0.1,0,0.1,0,0.1c-0.7,0.2,0.4,0.9,0.5,1.5c0.1,0.5-0.4,0.8-0.6,0.8C34.1,41.5,34.1,41.4,34.4,41.4z
			 M34.2,41.6c0.6,0.1,1-0.4,0.9-0.9c-0.1-0.2-0.3-0.5-0.4-0.7h0.1c0.1-0.1,0.2-0.2,0.3-0.4c0-0.1,0-0.1,0-0.2h0.1
			c0,0.1,0,0.1,0.1,0.2c0.1,0.2,0.3,0.3,0.6,0.5l0.1,0.1c0.1,0,0.2,0.1,0.3,0.2c-0.7-0.1-0.9,0.6-0.7,1.2c0.2,0.3,0.7,0.2,0.6,0
			c-0.2-0.7,0.2-0.6,0.6-0.3c0.3,0.5,0.6,1,1.2,1.1c0.3,0,0.5-0.2,0.3-0.5c-0.3-0.2-0.6-0.4-0.9-0.7c-0.4-0.5-0.5-1-0.8-1.2
			c-0.4-0.2-0.6-0.3-0.7-0.5c-0.2-0.2-0.2-0.4,0.2-0.6c0.1,0,0.2-0.1,0.3-0.1c-0.1,0.5,0,0.9,0.3,1.2c0.4,0.2,0.8,0.3,1.1,0
			c0.5-0.4,0.5-1.2-0.3-1.4c-0.5-0.1-0.7,0.7-0.4,0.7c0.2-0.1,0.5-0.1,0.5,0.2c-0.2,0.2-0.3,0.2-0.6,0.1c-0.2-0.3-0.2-0.6,0-0.9
			c0.1-0.1,0.2-0.1,0.3-0.2c0.2-0.3,0.5-0.5,0.9-0.8c0.2-0.2-0.2-0.6-0.5-0.4c-0.6,0.3-0.7,0.9-1.3,1l0,0c0.1-0.1,0.2-0.1,0.2-0.2
			c0.1-0.2,0.1-0.5,0.1-0.9c0-0.2,0.1-0.4,0.2-0.5c0.4-0.5-0.2-0.8-0.6-0.4c-0.2,0.2-0.3,0.4-0.3,0.8c-0.2-0.3-0.6-0.5-0.9-0.5
			c0-0.1,0-0.2-0.2-0.4c-0.2-0.3-0.7-0.1-0.5,0.2c0.1,0.1,0.1,0.3,0,0.4l-0.1,0.1c-1-0.2-1.6,0.1-1.9,0.5c-0.2-0.1-0.4-0.2-0.5-0.4
			c0.3-0.3,0.5-0.6,0.6-0.9c1.8-0.1,3.5-0.6,5.3-1.4L37.2,25c-3.4,1.7-8.1,1.7-11.6,0.1l-0.3,5.6l0,0v0.1l-0.2,4
			c1.7,0.7,3.4,1.1,5.1,1.2c0.1,0.3,0.4,0.7,0.7,0.9c-0.2,0.1-0.3,0.2-0.5,0.4c-0.3-0.3-0.9-0.5-1.7-0.4c-0.1-0.1-0.1-0.1-0.2-0.2
			c0-0.2-0.1-0.3,0-0.5c0.1-0.3-0.4-0.4-0.6-0.2c-0.1,0.2-0.1,0.4-0.1,0.5c-0.3,0-0.7,0.2-0.9,0.6c0-0.5-0.1-0.8-0.3-1
			c-0.4-0.4-0.9,0-0.6,0.4c0.2,0.2,0.3,0.4,0.2,0.6c0,0.3,0,0.6,0.1,0.8c0,0.1,0.1,0.1,0.2,0.2c-0.5-0.1-0.6-0.7-1.2-1
			c-0.3-0.2-0.7,0.2-0.5,0.4c0.3,0.3,0.6,0.6,0.8,0.9c0.1,0.1,0.2,0.2,0.3,0.2c0.2,0.3,0.2,0.6,0,0.9c-0.2,0.1-0.4,0.1-0.6-0.1
			c0-0.3,0.3-0.3,0.5-0.1c0.2,0,0.1-0.8-0.4-0.7c-0.8,0.1-0.8,0.9-0.3,1.3c0.3,0.2,0.7,0.2,1.1,0c-0.3,0.2-0.5,0.7-0.8,1.1
			c-0.2,0.3-0.6,0.5-0.9,0.7c-0.2,0.2,0.1,0.5,0.3,0.5c0.6-0.1,0.9-0.5,1.2-1c0.4-0.3,0.9-0.5,0.7,0.2c0,0.3,0.5,0.3,0.6,0.1
			c0.3-0.6,0.1-1.3-0.7-1.2c0.1-0.1,0.2-0.1,0.3-0.2c0.1,0,0.1-0.1,0.2-0.1c0.4-0.1,0.6-0.2,0.7-0.4c0.1-0.1,0.1-0.2,0.1-0.3H28
			c0,0.2,0.1,0.3,0.2,0.5c0.1,0.1,0.1,0.2,0.2,0.2c-0.2,0.2-0.4,0.4-0.5,0.6c-0.2,0.6,0.2,1,0.9,0.9c0.3,0,0.3-0.5,0.1-0.5
			c-0.4,0-0.4-0.2-0.4-0.3c0-0.2,0.2-0.3,0.4-0.5l0.1-0.1c0.4,0,0.9-0.1,1.3-0.2c0.1,0.2,0.3,0.3,0.5,0.3c-0.2,0.2-0.5,0.4-0.6,0.6
			c-0.2,0.4,0.3,0.7,0.5,0.3c0.2-0.3,0.5-0.5,0.8-0.7c0.2,0.1,0.3,0.1,0.5,0.2c0.1,0.1,0.2,0.2,0.3,0.3c0,0.1,0.1,0.2,0.2,0.2
			c0.2,0.1,0.4,0.1,0.5-0.2c0-0.2-0.3-0.6-0.8-0.9c0.1,0,0.1,0,0.2-0.1c0.2-0.1,0.3-0.2,0.4-0.3c0.5,0.2,0.8,0.3,1.2,0.4
			c0.2,0.1,0.3,0.2,0.4,0.4c0,0,0,0,0,0.1c0,0.2,0,0.3-0.4,0.3c-0.2,0-0.2,0.5,0,0.5c-3.3-0.4-6.7,0.1-10.1,1.4L25.1,24l0,0
			c3.6,1.9,7.8,2,12.3,0.1c0.1,0,0.1,0.1,0.2,0.1L39.1,43C37.5,42.2,35.9,41.8,34.2,41.6z M14.5,27.8c0.9-0.2,1.1-1,0.9-1.6l0.3,0.1
			l0.2-0.6L13.5,25L13,26.4l0.7,0.2l0.2-0.8c0.6,0.2,1,0.4,0.9,1s-0.9,0.6-2.1,0.2c-0.4-0.2-0.7-0.3-1-0.7c-0.3-0.6,0.4-1,1.1-0.8
			l0.3-0.6c-1.8-0.7-2.6,1-1.6,2C12.3,27.7,13.7,28,14.5,27.8z M17.3,44.8c-1-0.6-2.1,0.8-1.5,1.6l1.1,1.4l3.7-2.9l-1.3-1.6
			C18.6,42.7,16.8,43.7,17.3,44.8z M16.9,47.1l-0.5-0.7c-0.5-0.8,0.5-1.7,1.2-0.9l0.5,0.6L16.9,47.1z M18.4,45.9l-0.6-0.8
			c-0.5-0.8,0.6-1.7,1.4-0.9l0.5,0.6L18.4,45.9z M32.7,49.8c-0.3,0.9-0.2,1.5,0.2,2.3c0.3,0.7,1.4,0.6,1.6-0.1
			c0.2-0.8,0.1-1.6-0.3-2.3C33.8,49.1,32.9,49.1,32.7,49.8z M33.3,51.7c-0.1-0.5-0.3-1-0.1-1.5c0.1-0.4,0.5-0.4,0.6-0.1
			c0.2,0.5,0.2,1.1,0.2,1.6C33.8,52.1,33.4,52.2,33.3,51.7z M30,51.1c0.2,0.3,0.7,0.5,1,0.2c-0.1,0.5-0.4,0.9-0.6,0.6l-0.1-0.4h-0.5
			l0.1,0.5c0.3,0.8,1.2,0.8,1.5,0s0.3-1.6,0.1-2.2C31,48.5,29.4,49.5,30,51.1z M31.1,50.8c-0.2,0.2-0.4,0.3-0.6,0
			c-0.1-0.2-0.1-0.4,0-0.8c0.1-0.3,0.5-0.2,0.5,0C31.1,50.3,31.2,50.5,31.1,50.8z M16,38.5l-4.1,2l0.3,0.7l4.1-2L16,38.5z
			 M16.7,39.9l-0.6,0.4l1.1,1.7l-1.1,0.8l-1-1.5l-0.6,0.4l1,1.4l-1,0.7l-1-1.6L13,42.6l1.5,2.2l3.8-2.5L16.7,39.9z M14.6,37.4
			l-0.7,0.3l0.2,0.7l0.9-0.3c1.3-0.5,0.6-2.8-0.9-2.5l-3.3,0.9l0.2,0.8l3.2-0.9C14.8,36.2,15.1,37.2,14.6,37.4z M10.3,31.9l4.5,0.2
			v-0.8l-3-0.1l3.1-1.1v-0.8L10.4,29v0.7l3,0.2L10.3,31L10.3,31.9z M14.8,33.4l-4.6,0.4v0.8l4.6-0.4L14.8,33.4z M31.4,16.7
			c-8.3,0-15.2,6.8-15.2,15.2S23,47.1,31.4,47.1c8.3,0,15.2-6.8,15.2-15.2C46.6,23.5,39.8,16.7,31.4,16.7z M31.4,46.7
			c-8.1,0-14.8-6.6-14.8-14.8c0-8.1,6.6-14.8,14.8-14.8s14.8,6.6,14.8,14.8C46.2,40,39.6,46.7,31.4,46.7z M29.1,29
			c-0.3,0-0.6-0.1-0.9-0.2v-0.6c0.3,0.1,0.6,0.1,0.8,0.2v0.4c-0.2,0-0.4-0.1-0.6-0.1v-0.3c0.1,0,0.3,0,0.4,0.1v0.1h-0.3v0.1l0.3,0.1
			v-0.3c-0.2,0-0.4-0.1-0.6-0.1v0.5C28.6,28.8,28.9,28.9,29.1,29v-0.7c-0.3-0.1-0.7-0.1-1-0.2v0.8C28.5,29,28.8,29,29.1,29L29,29.8
			c-0.3,0-0.6-0.1-0.8-0.2v-0.5c0.2,0,0.4,0.1,0.6,0.1v0.3c-0.1,0-0.2,0-0.4-0.1v-0.2h0.2v-0.1h-0.3v0.3c0.2,0,0.3,0.1,0.5,0.1V29
			c-0.2,0-0.5-0.1-0.7-0.2v0.7c0.3,0.1,0.7,0.2,1,0.2L29.1,29z M34.1,26.7c-0.2,0-0.4,0.2-0.4,0.4c0,0.2,0.2,0.3,0.4,0.3
			s0.4-0.2,0.4-0.4C34.5,26.9,34.3,26.7,34.1,26.7z M26.4,26.8c0.2,0.1,0.5,0,0.5-0.2s-0.1-0.4-0.3-0.5c-0.2-0.1-0.5,0-0.5,0.2
			C26,26.5,26.2,26.7,26.4,26.8z M27.9,28.7c-0.3,0-0.6-0.1-0.9-0.2v-0.6c0.3,0.1,0.6,0.1,0.8,0.2v0.4c-0.2,0-0.4-0.1-0.6-0.1v-0.3
			c0.1,0,0.3,0,0.4,0.1v0.1h-0.3v0.1l0.3,0.1v-0.3c-0.2,0-0.4,0-0.6-0.1v0.4C27.4,28.5,27.6,28.6,27.9,28.7V28
			c-0.3-0.1-0.7-0.1-1-0.2v0.8C27.2,28.7,27.5,28.7,27.9,28.7l-0.1,0.8c-0.3,0-0.5-0.1-0.8-0.2v-0.5c0.2,0,0.4,0.1,0.6,0.1v0.3
			c-0.1,0-0.2,0-0.3-0.1v-0.2h0.2v-0.1h-0.3v0.3c0.2,0,0.3,0.1,0.5,0.1v-0.5c-0.2,0-0.5-0.1-0.7-0.2v0.7c0.3,0.1,0.6,0.2,1,0.3
			L27.9,28.7z M47,39.4l4.1,1.8l0.3-0.7l-4.1-1.8L47,39.4z M35.2,26.5c-0.2,0-0.4,0.2-0.4,0.4c0,0.2,0.2,0.3,0.4,0.3
			s0.4-0.2,0.4-0.4C35.7,26.6,35.5,26.5,35.2,26.5z M36.4,26.2c-0.2,0-0.4,0.2-0.4,0.4c0,0.2,0.2,0.3,0.4,0.3s0.4-0.2,0.4-0.4
			C36.8,26.3,36.6,26.1,36.4,26.2z M27.6,27.2c0.2,0.1,0.5,0,0.5-0.2s-0.1-0.4-0.3-0.5c-0.2-0.1-0.5,0-0.5,0.2
			C27.2,26.9,27.3,27.1,27.6,27.2z M28.7,27.5c0.2,0.1,0.5,0,0.5-0.2s-0.1-0.4-0.3-0.5c-0.2-0.1-0.5,0-0.5,0.2
			C28.4,27.2,28.5,27.4,28.7,27.5z M26.7,28.3c-0.3,0-0.6-0.1-0.9-0.2v-0.6c0.3,0.1,0.6,0.1,0.8,0.2v0.4c-0.2,0-0.4-0.1-0.6-0.1
			v-0.3c0.1,0,0.3,0,0.4,0.1v0.1h-0.3V28l0.3,0.1v-0.3c-0.2,0-0.4,0-0.6-0.1v0.5C26.3,28.1,26.5,28.2,26.7,28.3v-0.7
			c-0.3-0.1-0.7-0.1-1-0.2v0.8C26.1,28.2,26.4,28.3,26.7,28.3l-0.1,0.8c-0.3,0-0.6-0.1-0.8-0.2v-0.5c0.2,0,0.4,0.1,0.6,0.1v0.3
			c-0.1,0-0.2,0-0.4-0.1v-0.1h0.2v-0.1h-0.3v0.3c0.2,0,0.3,0.1,0.5,0.1v-0.5c-0.2,0-0.5-0.1-0.7-0.2v0.7c0.3,0.1,0.6,0.2,0.9,0.3
			L26.7,28.3z M35.4,36.9c-0.2-0.1-0.5-0.1-0.7,0.1c-0.1,0.2,0.5,0.7,0.8,0.5C35.8,37.4,35.7,37,35.4,36.9z M35.4,37.5
			c-0.4-0.1-0.5-0.1-0.5-0.4C35,37,35,37,35.3,37C35.6,37.1,35.6,37.4,35.4,37.5z M46.6,17.5L46.1,17L43,20.1l0.5,0.5l2.1-2.1
			l-1.1,3L45,22l3-3l-0.5-0.5l-2.2,2.2L46.6,17.5z M31.4,7.9c-13.2,0-24,10.8-24,24s10.8,24,24,24s24-10.8,24-24S44.6,7.9,31.4,7.9z
			 M31.4,54.4C19,54.4,8.9,44.3,8.9,31.9S19,9.3,31.4,9.3S54,19.5,54,31.9S43.8,54.4,31.4,54.4z M45.9,23.9l3.7-2.4l-0.4-0.6
			l-3.7,2.4L45.9,23.9z M46.9,26.1l4.7-0.6l-0.3-0.7L48,25.4l2.7-2.1l-0.4-0.6l-3.6,3L46.9,26.1z M48.3,31.9h1.9v0.6l-1.8,0.9v0.8
			l2-1.1c0.2,1.2,2.4,0.9,2.4-0.2V31l-4.5,0.1L48.3,31.9z M52.2,31.7v1c-0.3,0.7-1.3,0.5-1.4,0v-1H52.2z M50.3,36.1
			c-0.4,0.5-0.6,0.8-0.8,1c-0.4,0.3-0.8,0.2-1-0.3c-0.3-0.7,0.3-1.1,1-1l0.1-0.7c-0.9-0.2-1.4,0.1-1.8,0.8c-0.3,1.1,0.2,1.7,0.8,1.9
			s1.2-0.1,1.4-0.4c0.6-0.9,1.1-1.4,1.6-0.8c0.2,0.4,0,0.9-0.8,0.9l-0.1,0.6c1.4,0.3,1.9-1,1.5-1.9C51.9,35.6,51,35.3,50.3,36.1z
			 M48.2,30.4l0.6-0.1l-0.4-2l1.4-0.2l0.3,1.7l0.7-0.1L50.5,28l1.1-0.2l0.4,1.8l0.7-0.1l-0.5-2.6l-4.5,0.9L48.2,30.4z M35,28.8
			c0.3,0,0.5,0,0.8-0.1v-0.5c-0.2,0.1-0.4,0.1-0.6,0.1v0.3h0.3v-0.1h-0.3v-0.1c0.1,0,0.3,0,0.4,0v0.3C35.5,28.7,35.3,28.7,35,28.8
			l0.1-0.5c0.2,0,0.5-0.1,0.8-0.1v0.7C35.6,28.9,35.3,28.9,35,28.8v1c0.3,0,0.6-0.1,1-0.2v-0.7c-0.2,0-0.5,0.1-0.8,0.1v0.5
			c0.2,0,0.4,0,0.6,0v-0.4h-0.3v0.1h0.2v0.2c-0.1,0-0.3,0-0.4,0v-0.3c0.2,0,0.4,0,0.6-0.1v0.5c-0.2,0.1-0.5,0.1-0.8,0.1v-0.7
			c0.3,0,0.6,0,0.9-0.1V28c-0.3,0.1-0.6,0.2-1,0.2V28.8z M34.7,29.1v-0.8c-0.3,0.1-0.7,0.1-1,0.1V29c0.3,0,0.5,0,0.8-0.1v-0.5
			c-0.2,0.1-0.4,0.1-0.6,0.1v0.3h0.3v-0.1H34v-0.1c0.1,0,0.3,0,0.4,0v0.3c-0.2,0-0.4,0.1-0.6,0.1v-0.4c0.2,0,0.5,0,0.8-0.1
			L34.7,29.1c-0.3,0-0.6,0-1,0V30c0.3,0,0.6-0.1,1-0.2V29.1c-0.2,0.1-0.5,0.2-0.8,0.2v0.5c0.2,0,0.4,0,0.6-0.1v-0.3h-0.3v0.1h0.2
			v0.1c-0.1,0-0.3,0.1-0.4,0.1v-0.3c0.2,0,0.4,0,0.6-0.1v0.5c-0.2,0.1-0.5,0.1-0.8,0.1v-0.7C34.1,29.1,34.4,29.1,34.7,29.1z
			 M36.3,29.2c0.2,0,0.4-0.1,0.6-0.2v-0.3l-0.4,0.1v0.1h0.3V29C36.7,29,36.5,29.1,36.3,29.2l0.1-0.4c0.2,0,0.4,0,0.6-0.1v0.4
			C36.8,29.2,36.5,29.3,36.3,29.2l-0.1-0.6c0.3,0,0.6-0.1,0.9-0.1v-0.9c-0.3,0.1-0.6,0.2-1,0.3v0.6c0.2,0,0.5,0,0.8-0.1v-0.5
			c-0.2,0-0.4,0.1-0.6,0.1v0.3h0.3v-0.1h-0.3v-0.1c0.1,0,0.3-0.1,0.4-0.1v0.3c-0.2,0-0.4,0.1-0.6,0.1V28c0.3-0.1,0.5-0.2,0.8-0.2
			v0.7c-0.3,0.1-0.5,0.1-0.9,0.1v0.9c0.3,0,0.7-0.2,1-0.3v-0.5c-0.2,0-0.5,0.1-0.8,0.1L36.3,29.2z M35.6,30.5
			c-0.2,0-0.4,0.2-0.4,0.4c0,0.2,0.2,0.3,0.4,0.3S36,31,36,30.8C36.1,30.6,35.9,30.4,35.6,30.5z M34.4,30.7c-0.2,0-0.4,0.2-0.4,0.4
			c0,0.2,0.2,0.3,0.4,0.3s0.4-0.2,0.4-0.4C34.9,30.8,34.7,30.7,34.4,30.7z M36.2,32.7v-0.9c-0.3,0.1-0.6,0.2-1,0.2v0.6
			c0.3,0,0.5,0,0.8-0.1V32c-0.2,0-0.4,0.1-0.6,0.1v0.3h0.4v-0.1h-0.3v-0.1c0.1,0,0.3,0,0.4,0v0.3c-0.2,0-0.4,0.1-0.6,0v-0.4
			c0.2,0,0.5-0.1,0.8-0.1L36.2,32.7c-0.3,0-0.6,0-1,0v0.9c0.3,0,0.6-0.1,1-0.2V32.7c-0.3,0-0.5,0.1-0.8,0.1v0.5c0.2,0,0.4,0,0.6,0
			v-0.4h-0.3V33h0.2v0.2c-0.1,0-0.3,0-0.4,0v-0.3c0.2,0,0.4,0,0.6-0.1v0.5c-0.2,0.1-0.5,0.1-0.8,0.1v-0.7
			C35.7,32.7,36,32.7,36.2,32.7z M36.6,33.1c0.2,0,0.4-0.1,0.6-0.2v-0.3l-0.4,0.1v0.1H37v0.1c-0.1,0-0.3,0.1-0.4,0.1v-0.3
			c0.2,0,0.4,0,0.6-0.1V33C37.1,33,36.8,33.1,36.6,33.1l-0.1-0.6c0.3,0,0.6-0.1,0.8-0.1v-0.9c-0.3,0.1-0.6,0.2-1,0.3v0.6
			c0.2,0,0.5,0,0.8-0.1v-0.5c-0.2,0.1-0.4,0.1-0.6,0.1v0.3h0.3v-0.1h-0.3V32c0.1,0,0.3-0.1,0.4-0.1v0.3c-0.2,0-0.4,0.1-0.6,0.1v-0.4
			c0.3-0.1,0.5-0.2,0.8-0.2v0.7c-0.3,0.1-0.5,0.1-0.8,0.1v0.9c0.3,0,0.6-0.2,1-0.3v-0.5c-0.2,0-0.5,0.1-0.8,0.1L36.6,33.1z
			 M36.7,30.1c-0.2,0-0.4,0.2-0.4,0.4c0,0.2,0.2,0.3,0.4,0.3s0.4-0.2,0.4-0.4C37.1,30.2,36.9,30,36.7,30.1z M206.2,82.7h4.3v-0.9
			h-4.3v-2.7h4.7v-0.9h-5.8v8.4h5.8v-0.9h-4.7V82.7z M98.4,16.8c-0.1-0.1-0.4-0.4-0.6-0.5s-1.9,1.1-2.1,1.2
			c-0.6,0.3-1.4,1.2-1.4,1.2c-0.4,0.3-0.6,0.9-1,0.9c-0.3,0-0.2-0.3-0.3-0.5c-0.1-0.2-0.1-0.3-0.2-0.3c-0.1,0.1-0.2,0.2-0.2,0.2
			c0,0.4-0.1,0.5-0.2,0.8c-0.1,0.2,0.1,0.3,0.2,0.6c0.3,0.6,0.6,1.1,0.7,1.2s0.2,0,0.4-0.1c0.2-0.1,0.3-0.1,0.3-0.3
			c0-0.9-0.2-0.9-0.2-1.1s0.7-1,0.9-1.2c0.5-0.5,1.4-1,1.8-1.3s0.3,0,0.2,0.2c-0.1,0.2,0,0.2-0.2,0.4c-0.5,0.6-1.2,1.5-1.7,2.2
			c-0.2,0.2-0.1,0.2,0.1,0.4C95,21,95.4,21,95.4,21c1-0.5,1.4-0.5,2-0.7c0.3-0.2,0.2-0.6,0.1-0.9s-0.1-0.3-0.5-0.1
			c-0.8,0.3,0.3-1,0.9-1.6C98.3,17.1,98.5,17,98.4,16.8z M96.8,26c0.1,0.3,0.1,0.2,0.1,0.3c0,0.2,0.3,0,0.5-0.1s0.3,0,0.5,0.2
			c0.1,0.2,0.5-0.1,0.7-0.1c0.2-0.1,0.4-0.2,0.4-0.3c0-0.2,0.1-0.8,0-0.9c-0.7-0.5-1.4-1.4-2-2c-0.3-0.3-0.3-0.2-0.7-0.4
			c-0.4-0.2-0.7,0-0.7,0c-0.1,0.4-0.4-0.6-0.5-0.7c-0.1-0.2-0.2-0.2-0.3-0.2c-0.2,0-0.3,0.2-0.3,0.5c-0.1,0.5-0.1,0.6-0.1,1.2
			c0,0.3,0,0.2,0,0.5c0.1,0.9,0,1.9,0.1,2.7c0.1,0.6-1.2,0.2-1.5,0.2s-0.7-0.2-1-0.3c-0.3-0.1,0-0.3,0-0.5c0.1-0.2,0.8-0.8,0.9-0.9
			c0.2-0.2,0.3-0.2,0.5-0.4c0.2-0.1,0.3-0.2,0.3-0.3c0-0.1,0-0.1,0.2-0.3c0.3-0.2,0.2-0.4,0.2-0.4h-0.3c0,0-0.3,0.2-0.7,0.5
			c-0.5,0.5-1.7,1.6-2.1,1.9c-0.3,0.3-0.4,0.4-0.8,0.4s-0.4,0.1-0.5-0.1c-0.2-0.2-0.4-0.3-0.4,0.2c-0.1,0.5,0,0.3,0.2,0.6
			c0.1,0.2,0.4,0.5,0.5,0.6c0.3,0.3,0.7,0.5,0.9-0.1c0.1-0.4,0.1-0.5,0.1-0.5l0,0c0.1-0.2,0-0.2,0.1-0.4c0.1-0.1-0.2-0.2,0.4-0.2
			c0.7,0.4,1.4,0.7,2.1,1.2c0.4,0.3,0.6,0.6,0.9,0.8c0.8,0.5,0.8,0,0.8-0.6c0-1,0-1.9,0-2.9c0-0.3-0.6-2.6,0-2.4
			c0.2,0.1,0.2,0,0.4,0.1c0.7-0.1,0.6,1.6,0.6,1.9C96.7,25.8,96.5,25.6,96.8,26z M77.3,21.4c0,0,3.1-1.2,2.9-0.1c0,0,0.2,1.4,0,3.2
			c-0.5,3.4,4.5,2.5,6.6,1.7c1.6-0.7,1.2-0.7,1.1-1c0-0.2-0.1-0.4-0.1-0.7c0-0.2,0-0.2-0.1-0.4c-0.8-0.9-1.7-0.2-2.8,0.5
			c-1.2,0.7-2.3,1.1-2-0.5c0.4-2.1-0.7-4.2,1.1-3.9c0,0,0.5,0.2,1.5-0.8c0.9-0.8,2.1-2.1,0.9-3.9c-1.1-2.2-3.1-3.4-3.8-5.1
			c-0.7-1.2-0.7-0.6-1-0.2c-0.3,0.4-0.4,0.7-0.7,1.7c-0.3,1-0.7,6.4-0.7,6.4c0.2,1.7-1,1.7-2.2,2.4C76.8,21.5,77.3,21.4,77.3,21.4z
			 M82.8,11.6c0,0,2.1,2.8,2.6,4.1c0.5,1.2-0.6,0.9-1.7,2S82.8,17,82.8,17s0-2.6-0.1-3.1s-0.5-1.8-0.5-1.8
			C82.1,10.4,82.8,11.6,82.8,11.6z M229.3,86.6h1.1v-8.4h-1.1V86.6z M94.7,9.3c0.5,0.4,0.8,0.7,1,1.1c0.3,0.6-0.4,0.5-0.4,0.9
			c0.1,0.5,1-0.3,1.2-0.1c0.3,0.3,1.1-0.1,1.2-0.5c0.2-0.6-0.3-1.3-1-1.7c-1-0.5-2.4-0.6-2.5-0.3C94.2,8.8,94.5,9.1,94.7,9.3z
			 M139.8,25.5c5.1,1,6.8-4.9,7-6.2c0.2-1.3,3.1-2.1,3.1-2.1c1.1-0.3,1.3-0.3,1.9-0.5c0.8-0.3,1.4-1.2,1.3-1.3
			c0.2-0.7-0.8-0.6-0.8-0.6c-0.5,0-1.4-0.8-1.4-0.8c-1.2-0.8-0.2,0.8-0.2,0.8c1.3,1.6-2.6,2-2.6,2.1c-0.9,0.4-0.3-0.6-0.3-0.6
			c0.3-1.1,0.9-3.9,1.2-5.1c0.5-1.4-0.1-2.5-0.2-2.5c-0.5-0.9-1.9-1.7-1.9-1.7c-0.5-0.1,0,2.4,0,2.7c0.1,3-0.5,6.9-0.6,7
			c-0.1,0.4,0,0.7-0.3,0.9c-0.9,0.7-3.2,1.3-4.3,1.7c-0.7,0.2-1.6,0.6-1.9,0.5c-0.3-0.1-0.3-0.2-0.6-0.2c-0.6,0,0.3,1.5,0.3,1.5
			c0.3,0.6,1.6-0.4,4-1.4c1.1-0.5,1.6-0.5,1.9-0.7c0.2-0.1,0.2,0.3,0,0.5c-2.3,5.6-5.2,5.2-6.1,5c-0.6-0.2-0.6-0.1-0.6,0.1
			C138.9,25.4,139.8,25.5,139.8,25.5z M89.4,19.9c0.4,0,0.4-0.2,0.6-0.4c0.2-0.4,0.4-0.9,0.8-1.2c0.8-0.8,1.9-1.5,2.7-2
			c1.1-0.8,2.5-1.7,3.7-2.4c0.2-0.1,0.6-0.3,0.8-0.5c0.1-0.1,0.2,0,0,0.2c-1.2,1-2.4,1.7-3.1,2.2c-0.1,0-0.1,0.2-0.1,0.3
			c0,0,0.1,0.1,0.2,0c0.9-0.4,0.9-0.5,1.6-0.9c0.5-0.3,1.2-0.7,1.9-1.1c0.5-0.3,1-0.5,1.4-0.7s0.5-0.4,1-0.4
			c0.8-0.1,0.9-0.4,0.9-0.6c-0.1-0.4-0.3-0.5-0.7-0.6c-0.3-0.1-0.4-0.2-0.7-0.3c-0.4-0.1-1,0.3-0.9,0.7c0,0.2-0.2,0.4-0.6,0.6
			c-0.2,0.2-0.5,0.1-0.8,0.3c-0.4,0.2-0.8,0.4-1.1,0.5c-1.2,0.6-2.4,1.3-3.6,2c-0.8,0.5-1.2,0.8-1.9,1.2C91.3,17,89.8,18,89,18
			c-0.1,0-0.2-0.1-0.1-0.3c0.1-0.5-0.1-0.6-0.1-0.6c-0.1-0.1-0.1-0.4-0.5-0.1c-0.1,0.1-0.2,0.2-0.3,0.3c-0.3,0.5-0.2,1.2,0.1,1.9
			C88.5,19.9,88.7,20.1,89.4,19.9z M184.4,45.5h2.1v-4.3h-2.1V45.5z M200.2,85.4L200.2,85.4l-2.4-7.2h-1.2l2.9,8.4h1.3l3-8.4h-1.2
			L200.2,85.4z M177.2,50.7h1v-5h-1V50.7z M148.4,72.5v-8.6h-1.1v8.6H148.4z M103.6,85L103.6,85l-4.4-6.8H98v8.4h1v-6.7l0,0l4.4,6.7
			h1.2v-8.4h-1.1L103.6,85L103.6,85z M68.3,31.2c2.3,0.5,4.3-3.8,4.2-3.7c0.4-1.6,1.8,0.7,1.8,0.7c0,0.3,0.5,0.4,0.5,0.4
			c2.3-0.2,1.8-3.5,1.8-3.5c-1-3.6-0.4-9.9,0.1-13.7c0.2-1.6-0.8-2.3-0.8-2.3c-0.4-0.2-1.8-1-1.8-1c-0.3,0.4,0.3,1,0.3,1
			c0.3,1.8-0.4,4.6-0.4,4.6c-0.2,1.1-0.4,7.9-0.4,7.9c-0.2,1,0.3,3.7,0.3,4.4c0.1,0.7-0.3,0.7-0.7,0.3c-0.3-0.4,0.7-0.7,0-1
			c-0.7-0.2-1.6,1.1-2.6,1.6s-0.8,0.1-0.8-0.1c0-0.4,1.5-3.1,1.9-3.1c1.1,0,1.2-1.2,1.2-1.2c-0.1-1.5-3.2-2-3.6-2
			c-1.8,0.1-0.4,1-0.4,1c2.4,2.1-0.1,5.8-0.1,5.8c-0.5,1-1.2,1.4-1.3,1.4C66,29.2,68.3,31.2,68.3,31.2z M245.3,78.2l-2.4,4l-2.5-4
			H239l3.2,4.9v3.4h1.1v-3.4l3.2-4.9H245.3z M231.8,79.1h2.8v7.4h1.1v-7.4h2.8v-0.9h-6.7L231.8,79.1L231.8,79.1z M101.6,18.5
			c-0.1,0.1-0.3,0.5,0.1,0.5c0.9,0,4.3-5.8,5.8-7c1.1-0.8,1-1.2,1-1.2c0-1.3-2.1-1.6-2.3-1.6c-0.8,0,0.3,0.8,0.3,0.8
			c0.9,0.8-1.7,4.3-2.6,5.4C103,16.3,102.3,17.5,101.6,18.5z M226.6,82.6c-0.3-0.2-0.5-0.3-0.9-0.4s-0.6-0.2-1-0.3
			c-0.3-0.1-0.7-0.2-1-0.2c-0.3-0.1-0.6-0.2-0.9-0.3c-0.3-0.1-0.5-0.2-0.6-0.4s-0.2-0.4-0.2-0.6c0-0.3,0.1-0.5,0.2-0.7
			s0.2-0.3,0.4-0.4s0.4-0.2,0.6-0.2c0.2,0,0.5-0.1,0.7-0.1c0.6,0,1.1,0.1,1.4,0.4c0.4,0.3,0.6,0.7,0.6,1.3h1.1
			c0-0.5-0.1-0.9-0.3-1.2c-0.2-0.3-0.4-0.6-0.7-0.8c-0.3-0.2-0.6-0.4-1-0.5s-0.8-0.2-1.2-0.2s-0.8,0-1.1,0.1c-0.4,0.1-0.7,0.2-1,0.4
			c-0.3,0.2-0.5,0.5-0.7,0.8s-0.3,0.7-0.3,1.1s0.1,0.7,0.2,1c0.2,0.3,0.4,0.5,0.6,0.6c0.3,0.2,0.5,0.3,0.9,0.4
			c0.3,0.1,0.6,0.2,1,0.3c0.3,0.1,0.7,0.1,1,0.2s0.6,0.2,0.9,0.3c0.3,0.1,0.5,0.3,0.6,0.4c0.2,0.2,0.2,0.4,0.2,0.7
			c0,0.3-0.1,0.6-0.2,0.7c-0.1,0.2-0.3,0.3-0.5,0.5c-0.2,0.1-0.4,0.2-0.7,0.2s-0.5,0.1-0.8,0.1s-0.6,0-0.9-0.1
			c-0.3-0.1-0.6-0.2-0.8-0.4c-0.2-0.2-0.4-0.4-0.5-0.6c-0.1-0.3-0.2-0.6-0.2-0.9h-1.1c0,0.5,0.1,0.9,0.3,1.3s0.4,0.7,0.7,0.9
			c0.3,0.2,0.7,0.4,1.1,0.5s0.9,0.2,1.3,0.2c0.4,0,0.8,0,1.2-0.1s0.7-0.2,1-0.4c0.3-0.2,0.6-0.5,0.8-0.8s0.3-0.7,0.3-1.1
			s-0.1-0.8-0.2-1C227,83,226.8,82.7,226.6,82.6z M120.7,14.7c0.6-0.6,0.5-1.5,0.5-1.6c0-0.6-0.4-0.2-0.4-0.5v-1.9
			c0-0.1-0.1-0.2-0.1-0.3c-0.1-0.4-0.5,0.1-0.6,0.3c-0.4,0.7-1.2,1.9-1.2,2.8c0,0.3,0.1,0.8,0.4,1.2
			C119.7,15.2,120.4,15.1,120.7,14.7z M221.7,72c-0.1-0.2-0.1-0.4-0.1-0.6s-0.1-0.4-0.1-0.6s0-0.4,0-0.6s-0.1-0.4-0.1-0.6
			s-0.1-0.4-0.2-0.5s-0.2-0.3-0.4-0.4s-0.4-0.2-0.6-0.2l0,0c0.5-0.1,0.9-0.4,1.1-0.8s0.4-0.9,0.4-1.4c0-0.7-0.2-1.3-0.7-1.7
			s-1.1-0.6-1.9-0.6H215v8.6h1.1v-3.7h2.8c0.3,0,0.5,0,0.7,0.1s0.3,0.2,0.4,0.3c0.1,0.1,0.2,0.3,0.2,0.5s0.1,0.4,0.1,0.6
			s0.1,0.4,0.1,0.6s0,0.4,0,0.6s0,0.4,0.1,0.5c0,0.2,0.1,0.3,0.2,0.4h1.3C221.8,72.4,221.8,72.2,221.7,72z M219.9,67.6
			c-0.2,0.1-0.4,0.2-0.6,0.2c-0.2,0-0.5,0.1-0.8,0.1h-2.4v-3h2.8c0.5,0,0.9,0.1,1.2,0.4c0.2,0.3,0.4,0.6,0.4,1.1
			c0,0.3-0.1,0.6-0.2,0.8C220.2,67.3,220.1,67.5,219.9,67.6z M112.8,47.1c0.7,1,1.5,1.9,2.5,2.7c0.9-0.8,1.7-1.6,2.2-2.7H112.8z
			 M130.7,15.1c-0.1,0.1-1.9,0.8-2,0.9c-0.3,0.2,0,0.3,0.2,0.3c0.5,0,0.9-0.3,1.2-0.3c0.2,0,0.2,0.2-0.1,0.5c-0.4,0.4-0.8,1.2-1.4,2
			c-0.2,0.2-0.2,0.2-0.2,0.3c0,0.1-0.2,0.5-0.2,0.8c0,0.2,0.1,0.6,0.3,0.8c0.1,0.1,0.4,0.4,0.8,0.6c0.1,0.1,0.5,0.1,0.6,0.1
			c0.3-0.1,0.6-0.3,0.6-0.3s0.1-0.4,0-0.5s-0.4-0.3-0.5-0.4s-0.4-0.2-0.5-0.2c-0.2,0-0.2,0-0.3-0.1c-0.1-0.2,0.1-0.4,0.2-0.6
			c0.6-0.6,1.7-1.8,1.8-2s0.5-0.3,0.6-0.4c0.2-0.2,0.3-0.3,0.3-0.3c0.2-0.9-0.5-1-0.8-1.1C130.7,14.8,130.9,15,130.7,15.1z
			 M133.9,23.4c-0.1,0-0.1,0-0.1,0.4s-0.6,0.5-0.8,0.5c-1.6,0.2-3,0.5-4.8,0.5c-0.3,0-0.4-0.2-0.4-0.2c0-0.3,0-1.6,0.2-1.9
			c0.3-0.5,0-1.6,0-2v-2.5c-0.1-0.3-0.3-0.1-0.3,0.2c0,0.2-0.2,0.5-0.4,0.7c-0.1,0.2-0.5,0.6-0.6,0.8c0,0.3-0.9,2.7-0.6,4.5
			c0,0.3,0.7,1.2,1.1,1.6c1.8,0.6,6.6,0.4,7.8-0.2c0.7-0.3,0.7-0.1,0.8-0.7c0.1-0.8-0.1-1-0.1-1c-0.6-0.9-1.2-3.8-1.8-4.7
			c-0.1-0.1-0.2-0.3-0.4-0.1c-0.3,0.2,0,0.6,0.2,1C133.6,20.5,134.3,23.4,133.9,23.4z M122.4,12c0,0.1,1.6,0.5,1.6,1.1
			c0.1,0.2,0.3,0.4,0.5,0.6c0.4,0.3,1.4-0.3,1.4-0.8c0.2-0.5-0.2-0.6-0.4-0.7c-0.1-0.2,0.4-0.6,0.6-0.8s2.7-1.3,2.6-0.7
			c-0.6,0.9-1.4,1.4-2.1,1.9c0,0-0.3,0.1-0.1,0.2c0,0,0.2,0.1,0.4,0c0.6-0.3,3.2-1.9,4.4-2.2c0,0,0.6-0.1,0.5-0.4l-0.1-0.3
			c0,0-0.1-0.2-0.3-0.3s-0.4-0.2-0.5-0.3c-0.6-0.5-1,0.1-1.1,0.3c0,0-0.2,0.3-0.9,0.4c-1.2,0.3-2.4,1-3.7,1.4c-0.4,0.1-0.7,0.1-1,0
			c-0.2,0-0.1-0.2-0.6-0.1c0,0-0.4,0.1-0.8,0.3C122.4,11.6,122.3,11.6,122.4,12C122.3,11.9,122.4,11.9,122.4,12z M117.9,26.2
			c0.4,0.1,0.4,0,0.8-0.3s1.3-1,2-1.3c0.5-0.2-0.3,1.7-0.5,2v0.7c0.3,0.6,0.7,1.3,0.7,1.3c1,1.2,1.1-0.2,1.2-0.5
			c0.1-0.6,0.4-1.3,0.5-2c0.1-0.6,0.3-1.9,0.5-2.3c1-0.2,1.5-0.7,1.5-0.7c0.6-0.8,0.2-1.8,0-2.2c-0.1-0.2-0.2-0.6-0.3-0.5
			c-0.1,0.2-0.2-0.3-0.2-0.4c0-0.4,0.3-0.4,0.4-0.6c1.5-1.3,0.9-2.1,0.5-2.2c-0.4-0.2-1.5,0.3-1.5,0.3c-0.3-0.1,0-0.7,0.1-0.7
			s0.3-0.2,0.1-0.3c-0.1-0.1-0.2-0.3-0.2-0.3c0.1-0.4,0-0.8-0.1-1.1c-0.5-0.8-1.1,0-1,0.1c0.2,0.5,0.1,0.9-0.3,1.2
			c-0.4,0.3-0.8,0.5-0.8,0.5c-0.4,0.3-0.1,0.5,0.2,0.4c0.3-0.1,0.4-0.2,0.3,0.6c0,0.8-0.9,0.9-1.2,1.1c-0.3,0.2-0.4,0.2-0.4,0.2
			c0,0.1-0.2,0.1-0.5,0.4s-0.2,0-0.2-0.2s0-0.3-0.2-0.2c-0.2,0.1-0.4,0.6-0.4,0.6c-0.4,0.5-0.3,0.9-0.1,1.3c0.4,0.3,0.8-0.3,0.8-0.3
			s1.2-1.1,1.4-1.2c0.6-0.5,0.3-0.2,0.4,0.1c0.1,0.2,0,0.3,0,0.3s0.1,0.1-0.4,0.3c-0.5,0.2-0.2,0.6-0.2,0.6c0.8,0.4-1.5,1.8-2,2.3
			c-0.7,0.7-1,0.8-1.6,1.8C116.9,25.8,117.9,26.2,117.9,26.2z M123.6,17.7c0.2-0.3,0.6-0.3,0.7-0.2c0.1,0.1,0.1,0.2,0.1,0.2
			c0.3,0.2-0.7,1-0.7,1c-0.2,0.1-0.3,0.1-0.3-0.2C123.4,18.2,123.5,17.9,123.6,17.7z M123.3,20.6c0.1-0.2,0.3,0.7,0.2,1
			c-0.1,0.4-0.3,0.8-0.5,0.7C122.8,21.7,123,21.2,123.3,20.6z M118.5,24.3c0.8-0.7,1.8-1.5,2.4-1.8c0.1-0.1,0.4,0.5,0.1,0.9
			c-0.6,0.2-1.4,0.5-2,0.8C118.7,24.4,118.3,24.5,118.5,24.3z M219.1,85.5c0-0.2-0.1-0.4-0.1-0.6s0-0.4,0-0.6s-0.1-0.4-0.1-0.6
			s-0.1-0.4-0.2-0.5s-0.2-0.3-0.4-0.4s-0.3-0.2-0.6-0.2l0,0c0.5-0.1,0.9-0.4,1.1-0.8c0.2-0.4,0.3-0.8,0.3-1.3c0-0.7-0.2-1.2-0.7-1.6
			c-0.4-0.4-1.1-0.6-1.9-0.6h-3.9v8.4h1.1V83h2.7c0.3,0,0.5,0,0.7,0.1s0.3,0.2,0.4,0.3c0.1,0.1,0.2,0.3,0.2,0.5s0.1,0.4,0.1,0.6
			s0.1,0.4,0.1,0.6s0,0.4,0,0.6s0,0.3,0.1,0.5c0,0.1,0.1,0.3,0.2,0.4h1.2c-0.1-0.1-0.2-0.3-0.3-0.5
			C219.1,85.9,219.1,85.7,219.1,85.5z M217.5,81.8c-0.2,0.1-0.4,0.2-0.6,0.2c-0.2,0-0.5,0.1-0.7,0.1h-2.3v-2.9h2.8
			c0.5,0,0.9,0.1,1.1,0.4c0.2,0.3,0.4,0.6,0.4,1c0,0.3-0.1,0.6-0.2,0.7C217.8,81.5,217.7,81.7,217.5,81.8z M151.8,23
			c-0.4-0.3-4.2-3.6-4.2-3.6c0-0.2-0.2-0.1-0.2-0.1c-0.4-0.1,0,0.5,0,0.5c0.6,1.1,1.5,2.3,1.9,3.5c-0.1,0.2,0,0.3,0,0.3
			c0.9,1.7,1.4,2.8,2.7,2.3c0.9-0.2,2.3-1.4,3.2-1.9c0.1-0.6-0.4-0.3-0.4-0.3C152.3,23.6,151.8,23,151.8,23z M108.4,20.4
			c-0.3-0.4-0.4-0.6-1-0.3l-1.5,0.7c-0.2-0.1-0.6,0.3-0.1,0.6c0.3,0.1,0.6,0,0.7,0.1s0,0.3-0.1,0.6c0,0-0.3,0.5-0.4,0.8
			c0,0-0.3,1.6,1.2,0.9c0,0,0.9-0.4,0.7-1.2c0.2-0.7,0.5-1.1,0.6-1.8C108.5,20.6,108.5,20.6,108.4,20.4z M106.9,22.3
			c-0.2,0.3-0.3,0-0.3,0c0.1,0,0.6-0.8,0.8-1.3c0-0.1,0.2-0.1,0.2,0.1C107.6,21.1,107,22.2,106.9,22.3z M158.2,22.7
			c0.4,0.1,1.2-0.5,1.9-1.4c0.8-1.1,3.6-2.9,4.4-3.5c0.9-0.6,3-1.6,3.5-1.9h0.3c0.2,0.2,0.4,0.1,0.6,0c0.1-0.1,0.2-0.2,0.2-0.2
			c0.7,0.2,0.9-0.7,1.2-0.8c0.1,0,1.4-0.5,1.6-0.5c0.5,0,0.8-0.1,1.1,0.3c0.1,0.1,0,0.2,0,0.2c-0.5,0.5-3.1,2-4.1,2.5
			c-0.1,0-1.3,0.6-1.7,0.8c-0.3,0.2-0.5,0.3-0.9,0.4s-0.6,0.1-0.9,0.3c-0.2,0.1-0.3,0.4-0.2,0.7c0.1,0.3,0.5,0.4,1,0.2
			c0.3-0.1,0.5-0.1,0.8-0.1c0.2,0,0.1,0.1,0.1,0.3c0.1,0.2-0.1,1.4-0.2,1.4c-2.9,0.6-5.1,1.6-7.3,2.8c-0.1,0.1-0.5,0.4-0.6,0.4
			c-0.8,0.8-0.3,1,0.2,1.2c1.9,1.6,4.4,2.3,6.6,3c0.2,0.1,0.4,0.2,0.6,0.3c0.6,0.3,0.9,0.4,1.2-0.2c0.2-0.3,0.2-1,0.1-1.4
			c-0.1-0.5-0.3-1.1-0.2-1.8c0.1-1.1-0.2-2.1-0.1-2.5c0-0.1,0.3-0.3,0.8-0.4c0.4-0.1,1-0.1,1.5-0.1s0.6,0,1,0.1c0.2,0.1,0.4,0,0.4,0
			c0.2,0,0.2-0.3,0.3-0.5c0.1-0.4,0.4-0.3,0.1-0.8c-0.3-0.5-0.8-0.5-1.3-0.9c-0.1-0.1-0.2-0.1-0.4-0.1c-0.2,0.1-0.3,0.3-0.4,0.3
			c-0.3,0.2-0.9,0.4-1.1,0.4c-0.1,0-0.5-0.1-0.5-0.3c0-0.1,0.1-0.9,0.1-1s0.1-0.2,0.1-0.2c0.1,0,0.2-0.1,0.2-0.1
			c0.1-0.1,0.1-0.6,0-0.7c0-0.1-0.4-0.2-0.5-0.2c-0.2-0.2,0.1-0.2,0.4-0.3c0.3-0.1,0.7-0.4,1.2-0.7c1.3-0.7,3.1-1.8,3.8-2.5
			c0.1-0.1,0.3-0.1,0.3-0.2c0.4-2.1-1.8-0.9-2.6-0.7c-0.1,0.2-0.2,0-0.2,0c0-0.3,0.2-0.5,0.3-0.7c0.7-1.1,2-6.1,2.3-6.3
			c0-0.4-0.1-0.3-0.3-0.6c-0.2-0.1-0.6,0-0.8,0.2c-0.3-0.1-0.7,0.3-1,0.4c-0.2,0.1-1,0.6-1.1,0.6c-0.7,0.4-2.4,1.4-2.8,1.8
			c-0.1,0.1-0.1,0.1-0.3,0.1c-0.2,0.1-0.1,0.1-0.2,0c0-0.1,0.4-0.5,0.8-0.8c0.4-0.4,0.7-0.8,0.7-0.8c0.5-0.1,0.9-0.4,0.7-0.8
			c-0.3-0.6-1.9-1.6-2.2-1v0.5c0.2,0.2,0.1,0.2,0.1,0.2c0.3,0.5-1.1,2.4-1.5,3.1c-0.1,0.1-0.2,0-0.3-0.1c0.1-0.7-1.3-1.6-1.9-1.8
			c-0.2-0.1-0.7-0.3-1-0.5c-0.4-0.3-1.3-0.5-0.6,0.4c0.2,0.3,0.5,0.6,0.7,0.9c0.3,0.7,0.3,1.4,0.6,2.2c0.3,0.7,0.2,2.5-0.5,3.2
			c-0.6,0.5-0.8-0.6-0.8-0.6c-0.1-0.2-0.1-0.2-0.4-0.7c-0.1-0.3-0.7-1-1.1-0.6c0,0-0.3,0.3,0.1,0.7c0.3,0.4,0.3,1.1,0.3,1.4
			c-0.1,0.5,0,1.1,0.2,1.6c0.2,0.6,1.5-0.1,1.6-0.7c1-1.4,2.3-2.7,3.4-4.1c0.3-0.4,0.5,0,0.5,0c0,0.2-0.2,0.4-0.3,0.7
			c-0.1,0.2-0.3,0.4-0.4,0.5c-0.2,0.1-0.3,0-0.5,0.1c-0.3,0.2-0.1,0.3,0.1,0.4c0.4,0.1,0.1,0.9-0.6,1.7c-0.3,0.3-0.2,0.7-0.4,0.9
			c-0.3,0.3-1.3,0.7-1.7,1c-0.5,0.4-1.2,1.1-1.8,1.5c-1,0.8-3,2.4-2.9,3.5C157.3,22.2,157.7,22.6,158.2,22.7z M166.4,27.2
			c0.1,0.1,0,0.3-0.1,0.4c-0.3,0.1-0.8,0-1.3,0c-1.9-0.1-4.5-1-4.8-1.5c-0.2-0.1-0.1-0.3,1-0.5c0.3-0.1,0.6-0.4,0.9-0.7
			c0.3-0.2,0.7-0.5,1.1-0.7c0.7-0.3,1.3-0.4,1.5-0.5c0.5-0.1,0.8-0.3,1.4-0.4c0.2,0,0.2-0.1,0.4,0.1
			C166.5,23.6,166.1,26.6,166.4,27.2z M168.1,12.6c0,0,0-0.3-0.1-0.4c0-0.3-0.3-0.6-0.2-1c0,0,0.3-0.2,0.4,0c0,0.4,0,1,0.1,1.2
			C168.4,12.3,168.3,12.8,168.1,12.6z M167.6,10.2c0-0.1,2.6-1.7,2.9-2c0.2-0.2,1-0.6,1.3-0.7s0.2-0.2,0.4-0.1s0,0.2,0,0.3
			c-1,2.3-1.9,4.4-3.1,6.6c-0.1,0.3-0.3,0-0.3,0v-0.5c0.4-0.5,1.1-3,0-3.4c-0.2-0.1-0.4-0.1-0.6-0.1L167.6,10.2
			C167.6,10.4,167.6,10.3,167.6,10.2z M164.6,15.3c0.2-0.3,0.4-0.9,0.9-1.2c0,0,0.3-0.3,0.4-0.1c0.2,0.2,0.6,0.5,0.8,0.3
			c0.2-0.3,0.5-0.6,0.1-1c-0.1-0.1-0.2-0.2-0.3-0.2s-0.2-0.3-0.1-0.4c0.1-0.1,0.1-0.1,0.1-0.2c0,0,0.5-0.8,0.7-0.5
			c0.1,0.5,0.3,1.7,0.3,2s-0.2,0.4-0.8,0.6c-0.6,0.2-1.3,0.5-1.8,0.7C164.9,15.4,164.5,15.5,164.6,15.3z M107,15.8c0,0-2,1.3-2.8,2
			c-0.3,0.3-0.7,0.5-0.1,0.7c0,0,0.3,0,0.5,0s0.3,0,0.4-0.1c0.3-0.2,0.8-0.4,0.9-0.5c0,0,0.4-0.2,0.3,0.3c0,0-0.5,0.4-0.3,0.9
			c0,0,0,0.3,0.5,0.4c0.8,0.1,1.9,0.3,1.7-0.6c0-0.3-0.3-0.6-0.6-0.7c0,0-0.3-0.2,0.2-0.6c0,0,1.3-1.3,1-2
			C108.4,15.1,107.5,15.6,107,15.8z M111,18.9c-0.1,0-0.5,0.5-0.5,0.5v0.4c0.2-0.1,0.1,0.2,0.3,0.1c0-0.1,0.2-0.2,0.2-0.2
			c0-0.1,0.1-0.2,0.1-0.2v-0.2c0,0,0,0,0.1-0.1c0.2-0.2,0.2,0.7,0.1,1.3c0,0-0.2,0.1-0.1,0.1s0,0.1,0,0.1c-0.4,0.3-0.2,0.7-0.2,1.1
			c0,1.8-0.3,3.7-0.3,5.5v0.5c0.1,0.3,0.4,0.9,0.4,0.9c0.3,0.5,0.4,0.3,0.5,0.3c0.4-0.4,0.6-0.9,0.7-1.5c0-0.2,0.2-1.6,0-1.7
			c-0.1-1,0-1.9,0-1.9c0-0.7-0.1-2.3,0.1-2.8c0-0.3,0.2-0.1,0.2-0.1c0.1,0.2,0.1,0,0.2,0.1c0.2,0.2,1-0.6,1.1-0.7
			c0.9-1.1,1.7-1.7,2.5-3.2c0.1-0.3,0-0.6-0.2-0.8c-0.1-0.1-0.3-0.1-0.4-0.1c-0.3,0-1.1,0.1-1.4,0.2s-0.8,0.2-1.1,0.4
			c-0.1,0.1-0.3,0.1-0.4,0.1c-0.2-0.3-0.4-0.4-0.8-0.7c-0.2,0-0.1-0.3,0.1-0.4c0.2,0,2-1.3,2.1-1.3c0.2,0,1.5-1.2,1.8-1.4
			c0.5-0.1,0.5-0.7,0.1-0.9h-1c-0.8,0-4.1,1.4-4.5,1.9c-0.1,0.1-0.1,0.2-0.3,0.4c-0.3,0.1,0.4,0.8,0.5,0.8c0.2,0,0.2-0.2,0.4-0.2
			c0.2,0,0.6,0,0.6,0.3c0,0.1-0.1,0.2-0.2,0.2c-0.4,0.2-0.3,0.4-0.5,0.7c-0.1,0.1-0.1,0.2-0.1,0.3c0,0.1,0.1,0.4,0.2,0.4
			c0.3,0.2,0,0.9,0.1,1.2C111.6,18.4,111.1,18.9,111,18.9z M112.6,19.6c0-0.4,0.3-1,0.3-1.4c0-0.2,0.4-0.3,0.4-0.3
			c0.1-0.1,0.2-0.3,0.2-0.3v-0.3c0.1-0.2,0.4-0.3,0.4-0.3c0.1-0.1,0.4-0.1,0.6-0.1c0.2-0.1,1-0.4,1.1-0.2c0.1,0.1,0,0.4-0.1,0.5
			s-0.3,0.5-0.4,0.6c-0.2,0.4-1.6,2.1-1.9,1.9C112.5,20,112.6,19.6,112.6,19.6z M109.1,20.9L109.1,20.9L109.1,20.9
			c0.1,0.1,0.1,0.1,0.2,0.1s0.1,0,0.2-0.1c0.3-0.4,0.8-0.4,0.5-0.8c-0.2-0.3-0.6,0.1-0.8,0.2c-0.2,0-0.4,0.2-0.3,0.4
			C109,20.8,109.1,20.8,109.1,20.9z M102.7,23c-0.1,1,0.1,1.4,0.7,1.9c0.4,0.3,0.5,0.4,0.8,0.2c0.9-0.8,0.6-2.5,0-3.5
			c-0.2-0.5-0.4-1.1-0.3-1.5c0.1-0.5-0.5-0.2-0.5-0.2c-0.3,0.3-0.1,1.2-0.1,1.2c0,0.3,0,0.6-0.1,0.7C103,22.1,102.8,22.4,102.7,23z
			 M93.6,44.5L92,45.7h2.8v-3.4h-3.2C92.2,42.9,92.9,43.6,93.6,44.5z M94.5,86.6h1.1v-8.4h-1.1V86.6z M144.6,85.5
			c0-0.2-0.1-0.4-0.1-0.6s0-0.4,0-0.6s-0.1-0.4-0.1-0.6s-0.1-0.4-0.2-0.5s-0.2-0.3-0.4-0.4s-0.3-0.2-0.6-0.2l0,0
			c0.5-0.1,0.9-0.4,1.1-0.8c0.2-0.4,0.3-0.8,0.3-1.3c0-0.7-0.2-1.2-0.7-1.6c-0.4-0.4-1.1-0.6-1.9-0.6h-3.9v8.4h1.1V83h2.7
			c0.3,0,0.5,0,0.7,0.1s0.3,0.2,0.4,0.3c0.1,0.1,0.2,0.3,0.2,0.5s0.1,0.4,0.1,0.6s0.1,0.4,0.1,0.6s0,0.4,0,0.6s0,0.3,0.1,0.5
			c0,0.1,0.1,0.3,0.2,0.4h1.2c-0.1-0.1-0.2-0.3-0.3-0.5C144.7,85.9,144.6,85.7,144.6,85.5z M143,81.8c-0.2,0.1-0.4,0.2-0.6,0.2
			c-0.2,0-0.5,0.1-0.7,0.1h-2.3v-2.9h2.8c0.5,0,0.9,0.1,1.1,0.4c0.2,0.3,0.4,0.6,0.4,1c0,0.3-0.1,0.6-0.2,0.7
			C143.3,81.5,143.2,81.7,143,81.8z M132.2,68.6h4.5v-1h-4.5v-2.7h4.8v-1h-6v8.6h6v-1h-4.8V68.6z M135.4,79.3
			c-0.3-0.4-0.8-0.7-1.3-1c-0.5-0.2-1.1-0.4-1.7-0.4s-1.2,0.1-1.7,0.4c-0.5,0.2-0.9,0.6-1.3,1c-0.3,0.4-0.6,0.9-0.8,1.4
			s-0.3,1.1-0.3,1.6s0.1,1.1,0.3,1.6s0.4,1,0.8,1.4c0.3,0.4,0.8,0.7,1.3,1c0.5,0.2,1.1,0.4,1.7,0.4s1.2-0.1,1.7-0.4
			c0.5-0.2,0.9-0.6,1.3-1c0.3-0.4,0.6-0.9,0.8-1.4s0.3-1.1,0.3-1.6s-0.1-1.1-0.3-1.6S135.7,79.7,135.4,79.3z M135.1,83.6
			c-0.1,0.4-0.3,0.8-0.5,1.1c-0.2,0.3-0.5,0.6-0.9,0.8c-0.4,0.2-0.8,0.3-1.3,0.3s-0.9-0.1-1.3-0.3c-0.4-0.2-0.7-0.5-0.9-0.8
			s-0.4-0.7-0.5-1.1s-0.2-0.8-0.2-1.2c0-0.4,0.1-0.8,0.2-1.2c0.1-0.4,0.3-0.8,0.5-1.1c0.2-0.3,0.5-0.6,0.9-0.8
			c0.4-0.2,0.8-0.3,1.3-0.3s0.9,0.1,1.3,0.3c0.4,0.2,0.7,0.5,0.9,0.8s0.4,0.7,0.5,1.1s0.2,0.8,0.2,1.2
			C135.3,82.8,135.2,83.2,135.1,83.6z M144.4,68.4c-0.3-0.2-0.6-0.3-0.9-0.4c-0.3-0.1-0.7-0.2-1-0.3s-0.7-0.2-1-0.2
			s-0.6-0.2-0.9-0.3c-0.3-0.1-0.5-0.2-0.6-0.4c-0.2-0.2-0.2-0.4-0.2-0.6c0-0.3,0.1-0.5,0.2-0.7c0.1-0.2,0.3-0.3,0.4-0.5
			c0.2-0.1,0.4-0.2,0.6-0.2s0.5-0.1,0.7-0.1c0.6,0,1.1,0.1,1.5,0.4s0.6,0.7,0.7,1.3h1.1c0-0.5-0.1-0.9-0.3-1.2s-0.4-0.6-0.7-0.9
			c-0.3-0.2-0.6-0.4-1-0.5s-0.8-0.2-1.2-0.2s-0.8,0.1-1.2,0.2c-0.4,0.1-0.7,0.3-1,0.5s-0.5,0.5-0.7,0.8s-0.3,0.7-0.3,1.1
			s0.1,0.7,0.2,1s0.4,0.5,0.6,0.6s0.6,0.3,0.9,0.4s0.7,0.2,1,0.3c0.3,0.1,0.7,0.2,1,0.2c0.3,0.1,0.6,0.2,0.9,0.3
			c0.3,0.1,0.5,0.3,0.6,0.5c0.2,0.2,0.2,0.4,0.2,0.7c0,0.3-0.1,0.6-0.2,0.8c-0.1,0.2-0.3,0.4-0.5,0.5s-0.4,0.2-0.7,0.2
			s-0.5,0.1-0.8,0.1s-0.6,0-0.9-0.1c-0.3-0.1-0.6-0.2-0.8-0.4c-0.2-0.2-0.4-0.4-0.6-0.6s-0.2-0.6-0.2-0.9h-1.1c0,0.5,0.1,1,0.3,1.4
			s0.4,0.7,0.8,0.9c0.3,0.2,0.7,0.4,1.1,0.5c0.4,0.1,0.9,0.2,1.4,0.2c0.4,0,0.8,0,1.2-0.1s0.8-0.2,1.1-0.4c0.3-0.2,0.6-0.5,0.8-0.8
			s0.3-0.7,0.3-1.2c0-0.4-0.1-0.8-0.2-1.1C144.9,68.8,144.7,68.6,144.4,68.4z M91.1,84.3c0,0.5-0.1,0.8-0.3,1.1
			c-0.2,0.3-0.5,0.4-1,0.4c-0.3,0-0.5,0-0.7-0.1s-0.3-0.2-0.4-0.3s-0.2-0.3-0.2-0.5s-0.1-0.4-0.1-0.7v-0.4h-1.1v0.5
			c0,0.8,0.2,1.4,0.6,1.8s1,0.6,1.8,0.6c0.5,0,0.9-0.1,1.2-0.2c0.3-0.1,0.6-0.3,0.8-0.5s0.3-0.5,0.4-0.7s0.1-0.5,0.1-0.8v-6.3h-1.1
			C91.1,78.2,91.1,84.3,91.1,84.3z M157.2,71.4l0.3,1.1h0.7V68h-3.8v1h2.8c0,0.4,0,0.8-0.2,1.1c-0.1,0.3-0.3,0.6-0.5,0.9
			s-0.5,0.5-0.9,0.6c-0.3,0.1-0.7,0.2-1.2,0.2s-0.9-0.1-1.3-0.3c-0.4-0.2-0.7-0.4-0.9-0.8c-0.2-0.3-0.4-0.7-0.6-1.1
			c-0.1-0.4-0.2-0.8-0.2-1.3s0.1-0.9,0.2-1.3s0.3-0.8,0.5-1.2s0.5-0.6,0.9-0.8c0.4-0.2,0.8-0.3,1.3-0.3c0.3,0,0.6,0,0.9,0.1
			c0.3,0.1,0.5,0.2,0.8,0.3c0.2,0.2,0.4,0.3,0.6,0.6c0.2,0.2,0.3,0.5,0.3,0.9h1.1c-0.1-0.5-0.2-0.9-0.5-1.3
			c-0.2-0.4-0.5-0.7-0.8-0.9c-0.3-0.2-0.7-0.4-1.1-0.5s-0.9-0.2-1.3-0.2c-0.7,0-1.3,0.1-1.8,0.4c-0.5,0.3-0.9,0.6-1.3,1
			c-0.3,0.4-0.6,0.9-0.8,1.5s-0.3,1.2-0.3,1.8c0,0.6,0.1,1.1,0.3,1.6s0.5,1,0.8,1.4c0.4,0.4,0.8,0.7,1.3,1s1.1,0.4,1.7,0.4
			c0.5,0,1-0.1,1.5-0.3S156.9,71.9,157.2,71.4z M150.9,85.2l-2.6-7h-1.5v8.4h1.1v-7l0,0l2.6,7h0.9l2.6-7l0,0v7h1.1v-8.4h-1.5
			L150.9,85.2z M98.3,44.4c0.7-0.6,1.4-1.4,2-2.2h-3.2v3.4h2.6L98.3,44.4z M197.4,63.9h-1.1v7l0,0l-4.5-7h-1.2v8.6h1.1v-6.9l0,0
			l4.5,6.9h1.3v-8.6H197.4z M106.8,69.8c0,0.2,0.1,0.4,0.1,0.6s0.1,0.4,0.1,0.6s0,0.4,0,0.6s0,0.4,0.1,0.5c0,0.2,0.1,0.3,0.2,0.4
			h1.3c-0.1-0.1-0.2-0.3-0.3-0.5c-0.1-0.2-0.1-0.4-0.1-0.6s-0.1-0.4-0.1-0.6s0-0.4,0-0.6s-0.1-0.4-0.1-0.6s-0.1-0.4-0.2-0.5
			s-0.2-0.3-0.4-0.4s-0.4-0.2-0.6-0.2l0,0c0.5-0.1,0.9-0.4,1.1-0.8s0.4-0.9,0.4-1.4c0-0.7-0.2-1.3-0.7-1.7s-1.1-0.6-1.9-0.6h-4.1
			v8.6h1.1v-3.7h2.8c0.3,0,0.5,0,0.7,0.1s0.3,0.2,0.4,0.3C106.7,69.4,106.8,69.6,106.8,69.8z M105.9,67.8c-0.2,0-0.5,0.1-0.8,0.1
			h-2.4v-3h2.8c0.5,0,0.9,0.1,1.2,0.4c0.2,0.3,0.4,0.6,0.4,1.1c0,0.3-0.1,0.6-0.2,0.8c-0.1,0.2-0.3,0.4-0.4,0.5
			C106.3,67.7,106.1,67.8,105.9,67.8z M99.3,69.4v-5.5h-1.1v5.5c0,0.8-0.2,1.4-0.6,1.8s-0.9,0.6-1.7,0.6c-0.8,0-1.4-0.2-1.8-0.6
			s-0.6-1-0.6-1.8v-5.5h-1.1v5.5c0,1.2,0.3,2,0.9,2.5s1.5,0.8,2.6,0.8s1.9-0.3,2.5-0.8C99,71.3,99.3,70.5,99.3,69.4z M188.6,64.9v-1
			h-6v8.6h6v-1h-4.8v-3h4.5v-1h-4.5v-2.7L188.6,64.9L188.6,64.9z M110.5,83.1h2.7c0,0.4,0,0.7-0.2,1.1c-0.1,0.3-0.3,0.6-0.5,0.9
			c-0.2,0.2-0.5,0.4-0.8,0.6c-0.3,0.1-0.7,0.2-1.2,0.2s-0.9-0.1-1.2-0.3c-0.4-0.2-0.7-0.4-0.9-0.7c-0.2-0.3-0.4-0.7-0.5-1.1
			s-0.2-0.8-0.2-1.3c0-0.4,0.1-0.9,0.2-1.3s0.3-0.8,0.5-1.1c0.2-0.3,0.5-0.6,0.9-0.8c0.4-0.2,0.8-0.3,1.3-0.3c0.3,0,0.6,0,0.9,0.1
			s0.5,0.2,0.7,0.3s0.4,0.3,0.5,0.6c0.1,0.2,0.2,0.5,0.3,0.8h1.1c-0.1-0.5-0.2-0.9-0.4-1.3c-0.2-0.3-0.5-0.6-0.8-0.9
			c-0.3-0.2-0.7-0.4-1.1-0.5s-0.8-0.2-1.3-0.2c-0.7,0-1.2,0.1-1.7,0.4c-0.5,0.2-0.9,0.6-1.2,1c-0.3,0.4-0.6,0.9-0.7,1.4
			c-0.2,0.5-0.3,1.1-0.3,1.7c0,0.5,0.1,1.1,0.3,1.6c0.2,0.5,0.4,1,0.8,1.3c0.3,0.4,0.8,0.7,1.3,0.9c0.5,0.2,1,0.3,1.7,0.3
			c0.5,0,1-0.1,1.5-0.3c0.5-0.2,0.9-0.5,1.2-0.9l0.3,1h0.7v-4.4h-3.7v1.2H110.5z M125.6,85L125.6,85l-4.4-6.8H120v8.4h1.1v-6.7l0,0
			l4.4,6.7h1.2v-8.4h-1.1V85z M129.1,68c0-1.4-0.4-2.4-1.1-3.1c-0.7-0.7-1.7-1-3.1-1h-3v8.6h3c0.7,0,1.3-0.1,1.9-0.3
			c0.5-0.2,1-0.5,1.3-0.9s0.6-0.9,0.7-1.4C129,69.4,129.1,68.7,129.1,68z M127.8,69.5c-0.1,0.4-0.2,0.7-0.4,0.9
			c-0.2,0.2-0.4,0.4-0.6,0.6s-0.4,0.3-0.6,0.3c-0.2,0.1-0.4,0.1-0.6,0.1s-0.4,0-0.5,0h-1.9v-6.7h1.9c0.5,0,1,0.1,1.3,0.2
			c0.4,0.1,0.7,0.4,0.9,0.7c0.2,0.3,0.4,0.6,0.5,1s0.2,0.9,0.2,1.4C128,68.7,127.9,69.1,127.8,69.5z M202.8,72.5v-7.7h2.9v-1h-6.9v1
			h2.9v7.7H202.8z M111.5,68.6h4.5v-1h-4.5v-2.7h4.8v-1h-6v8.6h6v-1h-4.8V68.6z M81.5,69.4c0,0.8-0.2,1.4-0.6,1.8s-0.9,0.6-1.7,0.6
			c-0.8,0-1.4-0.2-1.8-0.6s-0.6-1-0.6-1.8v-5.5h-1.1v5.5c0,1.2,0.3,2,0.9,2.5s1.5,0.8,2.6,0.8s1.9-0.3,2.5-0.8
			c0.6-0.6,0.9-1.4,0.9-2.5v-5.5h-1.1C81.5,63.9,81.5,69.4,81.5,69.4z M190.6,85L190.6,85l-4.4-6.8H185v8.4h1.1v-6.7l0,0l4.4,6.7
			h1.2v-8.4h-1.1L190.6,85L190.6,85z M211.9,47h3.7v-3.6h-3.7V47z M166.2,70.9l-4.5-7h-1.2v8.6h1.1v-6.9l0,0l4.5,6.9h1.3v-8.6h-1.1
			L166.2,70.9L166.2,70.9z M218.1,47h3.7v-3.6h-3.7V47z M77.9,82.7h4.3v-0.9h-4.3v-2.7h4.7v-0.9h-5.8v8.4h5.8v-0.9h-4.7V82.7z
			 M73.3,82.1L73.3,82.1c0.4-0.2,0.7-0.4,0.9-0.7c0.2-0.3,0.3-0.7,0.3-1.2c0-0.4-0.1-0.8-0.3-1.1c-0.2-0.3-0.4-0.5-0.7-0.7
			c-0.1-0.1-0.3-0.1-0.5-0.2c-0.2,0-0.4-0.1-0.6-0.1s-0.4,0-0.6,0s-0.4,0-0.6,0h-3v8.4h4c0.4,0,0.8-0.1,1.1-0.2
			c0.3-0.1,0.6-0.3,0.8-0.5s0.4-0.5,0.5-0.8s0.2-0.6,0.2-0.9c0-0.5-0.1-1-0.4-1.3C74.2,82.5,73.8,82.3,73.3,82.1z M69.4,79.1h2.2
			c0.2,0,0.5,0,0.7,0s0.4,0.1,0.6,0.2s0.3,0.2,0.4,0.4c0.1,0.2,0.1,0.4,0.1,0.7c0,0.4-0.1,0.8-0.4,1s-0.7,0.3-1.4,0.3h-2.2
			C69.4,81.7,69.4,79.1,69.4,79.1z M73.4,85.2c-0.3,0.3-0.7,0.4-1.2,0.4h-2.8v-2.9H72c0.2,0,0.5,0,0.7,0.1c0.2,0,0.4,0.1,0.6,0.2
			s0.3,0.2,0.4,0.4c0.1,0.2,0.2,0.4,0.2,0.7C73.8,84.6,73.7,85,73.4,85.2z M194,86.6h1.1v-8.4H194V86.6z M245.5,34.7H66.6v23.4
			h178.9V34.7z M234,38.1c1,1.2,2,2.6,3.1,4.3l-2.2,1.4c-0.9-1.7-1.9-3.2-2.8-4.5L234,38.1z M192,39.8h6.4c-0.1-0.5-0.3-0.9-0.5-1.3
			l2.5-0.3c0.2,0.6,0.4,1.1,0.6,1.6h6.2v3.5h-2.1v-1.6h-11v1.6H192V39.8z M207,44.8l-1.3,1.9l-5.4-3.2l1.3-1.7
			C203.5,42.8,205.3,43.8,207,44.8z M125.2,38.2c0.9,1.2,1.6,2.2,2.2,3.1l-2.1,1.3c-0.5-1-1.2-2.1-2-3.2L125.2,38.2z M107.7,38.2
			c0.9,1.1,1.7,2.1,2.4,3l-2.1,1.4c-0.8-1.3-1.5-2.4-2.2-3.1L107.7,38.2z M85.2,53.5c-2.1-1.2-4-2.8-5.4-4.8v5.8h-2.3v-5.7
			c-1.4,1.8-3.2,3.4-5.4,4.8c-0.5-0.7-1.1-1.4-1.6-2.1c2.6-1.3,4.7-2.8,6.3-4.7h-5.9v-2.1h6.7v-1.9h-5.8v-2.1h5.8v-2.4h2.3v2.4h5.9
			v2.1h-5.9v1.9h6.8v2.1h-6c1.7,2,3.8,3.5,6.3,4.4C86.4,52,85.8,52.7,85.2,53.5z M102.6,53.5c-2.3-1.3-4.2-2.8-5.5-4.5v5.5h-2.4V49
			c-1.4,1.8-3.2,3.3-5.5,4.6c-0.5-0.7-1-1.4-1.5-2c2.1-0.9,4-2.2,5.5-3.8H88v-2.1h3.7c-0.4-0.6-1.1-1.4-1.9-2.3l1.5-1.2h-2.6v-2.1
			h5.9v-1.8H97v1.8h6v2.1h-2.7l1.6,1.2c-0.7,0.9-1.4,1.6-2,2.2h3.9v2.1h-5.4c1.5,1.6,3.4,2.8,5.6,3.6
			C103.6,52,103.1,52.7,102.6,53.5z M107.5,54l-1.2-1.8c0.2-0.3,0.4-0.7,0.4-1.3V46H105v-2.2h3.8v6c0.3-0.3,0.8-0.8,1.5-1.6
			c0.1,0.8,0.2,1.7,0.5,2.5C109.3,52.1,108.2,53.2,107.5,54z M120.2,54.5c-1.8-0.4-3.4-1.1-4.8-2c-1.4,0.9-3.1,1.6-4.9,2.1
			c-0.3-0.7-0.7-1.4-1.3-2.2c1.6-0.3,3-0.8,4.2-1.4c-0.9-0.9-1.8-1.8-2.5-3l1.4-0.9h-1.8V45h1.1c-0.4-0.5-1-1.1-1.7-1.8
			c1.2-0.8,1.8-2,1.8-3.4v-1.1h7.3v2.6c0,0.4,0.1,0.7,0.4,0.7c0.3,0.1,0.9,0.1,1.9,0c-0.2,0.9-0.3,1.6-0.4,2c-1,0-1.8,0-2.2,0
			c-1.2,0-1.9-0.6-1.9-1.8v-1.7H114c0,1.6-0.8,3-2.2,4.2h8.4v2c-0.8,1.5-1.7,2.8-2.9,3.9c1.2,0.6,2.6,1,4.1,1.2
			C121,52.8,120.6,53.6,120.2,54.5z M124.8,54.2l-1.2-1.6c0.3-0.3,0.4-0.8,0.4-1.4v-5.3h-1.7v-2.2h3.9v6.5c0.5-0.3,1.2-0.8,2.4-1.5
			c0.1,1,0.2,1.8,0.3,2.4C126.8,52.6,125.4,53.6,124.8,54.2z M138.7,45.5h-4.2v9.1H132v-9.1h-4.2v-2.2h4.2v-5h2.5v5h4.2V45.5z
			 M148,44c0,0.6-0.1,1.7-0.1,3.6c0,1.6-0.9,2.4-2.5,2.4c-0.6,0-1.1,0-1.5,0c-0.1-1-0.2-1.7-0.2-2c0.3,0,0.9,0.1,1.7,0.1
			c0.3,0,0.5-0.2,0.5-0.6c0-0.3,0.1-0.8,0.1-1.4h-3v5.1c0,0.7,0.3,1,0.9,1h1.8c0.5,0,0.8-0.3,0.9-0.8c0-0.2,0.1-0.7,0.1-1.3
			c0.7,0.2,1.5,0.3,2.3,0.5c-0.1,0.9-0.3,1.5-0.4,2.1c-0.2,1-1.1,1.5-2.5,1.5h-2.5c-1.8,0-2.8-0.8-2.8-2.3v-7
			c-0.2,0.1-0.3,0.3-0.5,0.4c-0.2-0.5-0.5-1.2-1-2.1c1.9-1.7,3.3-3.2,4-4.7h2.8l-0.3,0.4c1.1,1.1,2.1,2.3,3.3,3.6l-1.8,1.6
			c-0.8-1.2-1.7-2.3-2.6-3.4c-0.7,1.1-1.7,2.3-3,3.4L148,44L148,44z M149.5,40h2.2v10h-2.2V40z M155.2,51.2c0,2-0.7,3.1-2.1,3.1
			c-0.9,0-1.7,0-2.5,0c-0.1-0.7-0.2-1.5-0.5-2.3c0.5,0,1.1,0,1.9,0c0.6,0,0.9-0.4,0.9-1.2V38.5h2.2v12.7H155.2z M162.5,52.3
			c0,0.5-0.1,0.9-0.3,1.2s-0.5,0.5-0.9,0.6s-1.1,0.1-2.2,0.1c-0.1-0.7-0.2-1.3-0.3-1.9l-0.3,0.7c-0.4-0.3-1-0.5-1.8-0.8
			c0.6-1,1-2.2,1.4-3.6l1.9,0.6c-0.3,1-0.7,2-1.1,2.9c0.3,0,0.5,0,0.8,0c0.4,0,0.6-0.2,0.6-0.7v-3h-3.1v-1.9h3.1v-1.1h-3.4v-1.9h1.8
			c-0.2-0.5-0.5-0.9-0.7-1.3l1.8-0.7c0.4,0.7,0.8,1.4,1.1,2h0.7c0.5-0.9,0.9-1.6,1.1-2.1h-5.5v-1.9h2.9c-0.1-0.4-0.3-0.8-0.4-1.1
			L162,38c0.2,0.4,0.3,0.9,0.5,1.5h2.8v1.9H163c0.3,0.1,0.9,0.4,1.8,0.8c-0.2,0.3-0.5,0.7-0.8,1.3h1.7v1.9h-3.2v1.1h2.9v1.9h-2.9
			V52.3z M173.3,43.6v2.2H172v8.6h-2.2v-8.6h-1.5v0.9c0,3.5-0.8,6.2-2.3,8c-0.7-0.7-1.4-1.2-2.1-1.7c0.6-0.6,1.1-1.2,1.5-2.1l-1.7,1
			c-0.4-0.9-0.8-1.7-1.3-2.4l1.6-0.8c0.4,0.5,0.8,1.3,1.4,2.3c0.5-1.1,0.7-2.4,0.7-3.9v-7.4c2.5-0.3,4.6-0.7,6.1-1.2l0.9,2.2
			c-1.5,0.4-3.1,0.7-4.9,0.8v2.2h5.1V43.6z M177.2,53.5h-1.8V48c-0.2,0.3-0.4,0.6-0.6,0.9c-0.2-0.9-0.5-1.8-0.9-2.5
			c1-1.5,1.8-3.2,2.2-5.2h-1.6v-2h5.7v2h-2c-0.2,0.9-0.5,1.8-0.8,2.7h2.6v8.6h-2.8L177.2,53.5L177.2,53.5z M190.5,47.4h-1.9v6.9
			h-2.2v-6.9h-2.1c-0.2,3.2-1.1,5.6-2.7,7.2c-0.7-0.5-1.3-1-2.1-1.5c1.5-1.3,2.3-3.1,2.5-5.7h-1.7v-2h1.8v-4.3h-1.4v-2h9.2v2h-1.5
			v4.3h1.9v2H190.5z M197.3,41.9l1.2,1.7c-1.8,1-3.6,1.9-5.4,2.8c-0.4-0.7-0.8-1.3-1.2-1.9C193.9,43.7,195.7,42.8,197.3,41.9z
			 M206.8,53.6c-0.5,0.3-1,0.5-1.5,0.5h-1.7c-1.4,0-2.1-0.7-2.1-2v-3.6H199c-0.4,2.9-2.3,5-5.7,6.2c-0.4-0.6-0.8-1.3-1.3-2.1
			c2.8-0.8,4.3-2.1,4.8-4h-4.1v-1.9h4.3l0.1-1.9h2.2c0,0.6-0.1,1.2-0.1,1.9h4.5v5c0,0.5,0.2,0.7,0.7,0.7h0.4c0.4,0,0.6-0.1,0.7-0.4
			c0.1-0.3,0.2-1.2,0.4-2.8l2,0.6C207.7,51.9,207.3,53.2,206.8,53.6z M224.3,50.4h-2.4v-1.1h-3.7v5.3h-2.5v-5.3H212v1.2h-2.4v-9.3
			h6.2v-2.9h2.5v2.9h6.2v9.2H224.3z M228.1,50.7l-2.2-0.8c0.6-2,1.2-4.3,1.8-7l2.3,0.5C229.5,46.1,228.9,48.5,228.1,50.7z
			 M239.1,51.7c-0.2,0.9-0.5,1.4-0.7,1.7c-0.3,0.3-0.6,0.5-1.1,0.6c-0.4,0.1-0.9,0.2-1.5,0.2h-2.7c-1.9,0-2.8-0.9-2.8-2.8v-9.5h2.4
			v8.8c0,0.9,0.5,1.4,1.5,1.4h0.8c0.5,0,0.9-0.1,1.2-0.3s0.4-0.4,0.5-0.7s0.2-1.1,0.3-2.4c1,0.4,1.8,0.7,2.5,0.9
			C239.5,50.1,239.3,50.8,239.1,51.7z M240.1,49.6c-0.6-1.8-1.4-3.6-2.2-5.5l2.2-0.9c0.9,1.8,1.7,3.6,2.3,5.4L240.1,49.6z
			 M88.1,72.5v-7.7H91v-1h-7v1h2.9v7.7H88.1z M159.7,78.2l-3.3,8.4h1.1l0.9-2.5h3.5l0.9,2.5h1.2l-3.3-8.4H159.7z M158.8,83.1
			l1.4-3.9l0,0l1.4,3.9H158.8z M166.5,78.2h-1.1v8.4h5.5v-0.9h-4.4V78.2z M213.1,64.9v-1h-6v8.6h6v-1h-4.8v-3h4.5v-1h-4.5v-2.7
			L213.1,64.9L213.1,64.9z M84.5,86.6h1.1v-8.4h-1.1V86.6z M74,64.9v-1h-5.7v8.6h1.1v-3.9h4v-1h-4v-2.7H74z M181.7,83.5
			c0,0.7-0.2,1.3-0.6,1.7c-0.4,0.4-0.9,0.6-1.6,0.6c-0.7,0-1.3-0.2-1.7-0.6s-0.6-1-0.6-1.7v-5.3h-1.1v5.3c0,1.1,0.3,1.9,0.9,2.4
			s1.4,0.8,2.5,0.8s1.9-0.3,2.4-0.8s0.9-1.3,0.9-2.4v-5.3h-1.1L181.7,83.5L181.7,83.5z M179.6,71.8c0.6-0.6,1-1.4,1.1-2.5h-1.1
			c0,0.4-0.1,0.7-0.2,1c-0.1,0.3-0.3,0.6-0.5,0.8c-0.2,0.2-0.5,0.4-0.8,0.5s-0.6,0.2-1,0.2c-0.5,0-1-0.1-1.3-0.3
			c-0.4-0.2-0.7-0.5-0.9-0.8s-0.4-0.7-0.5-1.1s-0.2-0.9-0.2-1.4s0.1-0.9,0.2-1.3c0.1-0.4,0.3-0.8,0.5-1.1s0.5-0.6,0.9-0.8
			c0.4-0.2,0.8-0.3,1.3-0.3c0.6,0,1.1,0.2,1.6,0.5c0.4,0.3,0.7,0.8,0.9,1.4h1.1c-0.1-0.5-0.2-0.9-0.4-1.2c-0.2-0.3-0.5-0.6-0.8-0.9
			c-0.3-0.2-0.7-0.4-1.1-0.5c-0.4-0.1-0.8-0.2-1.3-0.2c-0.7,0-1.2,0.1-1.8,0.4c-0.5,0.2-0.9,0.6-1.3,1c-0.3,0.4-0.6,0.9-0.8,1.4
			c-0.2,0.6-0.3,1.1-0.3,1.8s0.1,1.2,0.2,1.8c0.2,0.5,0.4,1,0.7,1.4s0.7,0.7,1.2,0.9c0.5,0.2,1.1,0.3,1.8,0.3
			C178.1,72.7,179,72.4,179.6,71.8z"/>
	</g>
</g>
</svg>
